<mxfile host="app.diagrams.net" modified="2023-03-23T20:34:51.861Z" agent="Mozilla/5.0 (Windows NT 10.0; Win64; x64; rv:109.0) Gecko/20100101 Firefox/111.0" etag="ZrvPQlgkj6jsko48NEkj" version="21.1.0" type="github" pages="3">
  <diagram name="gchess_eventual_tcp" id="5f0bae14-7c28-e335-631c-24af17079c00">
    <mxGraphModel dx="1298" dy="513" grid="1" gridSize="10" guides="1" tooltips="1" connect="1" arrows="1" fold="1" page="1" pageScale="1" pageWidth="1100" pageHeight="850" background="none" math="0" shadow="0">
      <root>
        <mxCell id="0" />
        <mxCell id="1" parent="0" />
        <mxCell id="Jzxc5cEZgmX9n788ghIn-9" value="Server-Model" style="verticalAlign=top;align=left;spacingTop=8;spacingLeft=2;spacingRight=12;shape=cube;size=10;direction=south;fontStyle=4;html=1;rounded=0;shadow=0;comic=0;labelBackgroundColor=none;strokeWidth=1;fontFamily=Verdana;fontSize=12" parent="1" vertex="1">
          <mxGeometry x="709" y="350" width="330" height="220" as="geometry" />
        </mxCell>
        <mxCell id="39150e848f15840c-1" value="Client-View" style="verticalAlign=top;align=left;spacingTop=8;spacingLeft=2;spacingRight=12;shape=cube;size=10;direction=south;fontStyle=4;html=1;rounded=0;shadow=0;comic=0;labelBackgroundColor=none;strokeWidth=1;fontFamily=Verdana;fontSize=12" parent="1" vertex="1">
          <mxGeometry x="120" y="70" width="330" height="220" as="geometry" />
        </mxCell>
        <mxCell id="Jzxc5cEZgmX9n788ghIn-4" value="" style="edgeStyle=none;curved=1;rounded=0;orthogonalLoop=1;jettySize=auto;html=1;fontSize=12;startSize=8;endSize=8;" parent="1" source="39150e848f15840c-2" target="39150e848f15840c-5" edge="1">
          <mxGeometry relative="1" as="geometry" />
        </mxCell>
        <mxCell id="39150e848f15840c-2" value="Client-Model" style="verticalAlign=top;align=left;spacingTop=8;spacingLeft=2;spacingRight=12;shape=cube;size=10;direction=south;fontStyle=4;html=1;rounded=0;shadow=0;comic=0;labelBackgroundColor=none;strokeWidth=1;fontFamily=Verdana;fontSize=12" parent="1" vertex="1">
          <mxGeometry x="530" y="70" width="330" height="220" as="geometry" />
        </mxCell>
        <mxCell id="39150e848f15840c-3" value="Server-Controller" style="verticalAlign=top;align=left;spacingTop=8;spacingLeft=2;spacingRight=12;shape=cube;size=10;direction=south;fontStyle=4;html=1;rounded=0;shadow=0;comic=0;labelBackgroundColor=none;strokeWidth=1;fontFamily=Verdana;fontSize=12" parent="1" vertex="1">
          <mxGeometry x="370" y="410" width="260" height="150" as="geometry" />
        </mxCell>
        <mxCell id="39150e848f15840c-4" value="&lt;b&gt;CLI_View&lt;/b&gt;" style="html=1;rounded=0;shadow=0;comic=0;labelBackgroundColor=none;strokeWidth=1;fontFamily=Verdana;fontSize=12;align=center;" parent="1" vertex="1">
          <mxGeometry x="120" y="140" width="110" height="50" as="geometry" />
        </mxCell>
        <mxCell id="39150e848f15840c-5" value="View" style="shape=component;align=left;spacingLeft=36;rounded=0;shadow=0;comic=0;labelBackgroundColor=none;strokeWidth=1;fontFamily=Verdana;fontSize=12;html=1;" parent="1" vertex="1">
          <mxGeometry x="310" y="150" width="120" height="60" as="geometry" />
        </mxCell>
        <mxCell id="39150e848f15840c-6" value="" style="ellipse;whiteSpace=wrap;html=1;rounded=0;shadow=0;comic=0;labelBackgroundColor=none;strokeWidth=1;fontFamily=Verdana;fontSize=12;align=center;" parent="1" vertex="1">
          <mxGeometry x="360" y="230" width="20" height="20" as="geometry" />
        </mxCell>
        <mxCell id="39150e848f15840c-7" value="Model" style="shape=component;align=left;spacingLeft=36;rounded=0;shadow=0;comic=0;labelBackgroundColor=none;strokeWidth=1;fontFamily=Verdana;fontSize=12;html=1;" parent="1" vertex="1">
          <mxGeometry x="530" y="110" width="120" height="60" as="geometry" />
        </mxCell>
        <mxCell id="39150e848f15840c-8" value="Board&lt;span style=&quot;white-space: pre;&quot;&gt; &lt;/span&gt;" style="html=1;rounded=0;shadow=0;comic=0;labelBackgroundColor=none;strokeWidth=1;fontFamily=Verdana;fontSize=12;align=center;" parent="1" vertex="1">
          <mxGeometry x="740" y="80" width="110" height="50" as="geometry" />
        </mxCell>
        <mxCell id="39150e848f15840c-9" value="" style="ellipse;whiteSpace=wrap;html=1;rounded=0;shadow=0;comic=0;labelBackgroundColor=none;strokeWidth=1;fontFamily=Verdana;fontSize=12;align=center;" parent="1" vertex="1">
          <mxGeometry x="620" y="230" width="20" height="20" as="geometry" />
        </mxCell>
        <mxCell id="39150e848f15840c-11" style="edgeStyle=none;rounded=0;html=1;dashed=1;labelBackgroundColor=none;startArrow=none;startFill=0;startSize=8;endArrow=open;endFill=0;endSize=16;fontFamily=Verdana;fontSize=12;entryX=-0.034;entryY=0.649;entryDx=0;entryDy=0;entryPerimeter=0;" parent="1" source="39150e848f15840c-10" target="Jzxc5cEZgmX9n788ghIn-14" edge="1">
          <mxGeometry relative="1" as="geometry" />
        </mxCell>
        <mxCell id="39150e848f15840c-12" style="edgeStyle=none;rounded=0;html=1;dashed=1;labelBackgroundColor=none;startArrow=none;startFill=0;startSize=8;endArrow=open;endFill=0;endSize=16;fontFamily=Verdana;fontSize=12;exitX=0.25;exitY=0;exitDx=0;exitDy=0;" parent="1" source="Jzxc5cEZgmX9n788ghIn-10" target="39150e848f15840c-9" edge="1">
          <mxGeometry relative="1" as="geometry" />
        </mxCell>
        <mxCell id="39150e848f15840c-13" style="edgeStyle=elbowEdgeStyle;rounded=0;html=1;labelBackgroundColor=none;startArrow=none;startFill=0;startSize=8;endArrow=none;endFill=0;endSize=16;fontFamily=Verdana;fontSize=12;" parent="1" source="39150e848f15840c-9" target="39150e848f15840c-7" edge="1">
          <mxGeometry relative="1" as="geometry" />
        </mxCell>
        <mxCell id="39150e848f15840c-14" style="edgeStyle=elbowEdgeStyle;rounded=0;html=1;labelBackgroundColor=none;startArrow=none;startFill=0;startSize=8;endArrow=none;endFill=0;endSize=16;fontFamily=Verdana;fontSize=12;" parent="1" source="39150e848f15840c-6" target="39150e848f15840c-5" edge="1">
          <mxGeometry relative="1" as="geometry" />
        </mxCell>
        <mxCell id="39150e848f15840c-15" style="edgeStyle=orthogonalEdgeStyle;rounded=0;html=1;labelBackgroundColor=none;startArrow=none;startFill=0;startSize=8;endArrow=open;endFill=0;endSize=16;fontFamily=Verdana;fontSize=12;dashed=1;" parent="1" source="39150e848f15840c-5" target="39150e848f15840c-4" edge="1">
          <mxGeometry relative="1" as="geometry">
            <Array as="points">
              <mxPoint x="350" y="220" />
              <mxPoint x="215" y="220" />
            </Array>
          </mxGeometry>
        </mxCell>
        <mxCell id="39150e848f15840c-16" style="edgeStyle=orthogonalEdgeStyle;rounded=0;html=1;dashed=1;labelBackgroundColor=none;startArrow=none;startFill=0;startSize=8;endArrow=open;endFill=0;endSize=16;fontFamily=Verdana;fontSize=12;" parent="1" source="39150e848f15840c-7" target="39150e848f15840c-8" edge="1">
          <mxGeometry relative="1" as="geometry" />
        </mxCell>
        <mxCell id="39150e848f15840c-17" style="edgeStyle=orthogonalEdgeStyle;rounded=0;html=1;labelBackgroundColor=none;startArrow=none;startFill=0;startSize=8;endArrow=none;endFill=0;endSize=16;fontFamily=Verdana;fontSize=12;" parent="1" source="R1NMKCMqHLLnGD4xA51p-15" target="39150e848f15840c-2" edge="1">
          <mxGeometry relative="1" as="geometry">
            <Array as="points" />
          </mxGeometry>
        </mxCell>
        <mxCell id="39150e848f15840c-18" style="edgeStyle=orthogonalEdgeStyle;rounded=0;html=1;labelBackgroundColor=none;startArrow=none;startFill=0;startSize=8;endArrow=none;endFill=0;endSize=16;fontFamily=Verdana;fontSize=12;" parent="1" source="39150e848f15840c-3" target="39150e848f15840c-1" edge="1">
          <mxGeometry relative="1" as="geometry">
            <Array as="points">
              <mxPoint x="285" y="485" />
            </Array>
          </mxGeometry>
        </mxCell>
        <mxCell id="Jzxc5cEZgmX9n788ghIn-1" value="&lt;b&gt;Phoenix_View&lt;/b&gt;" style="html=1;rounded=0;shadow=0;comic=0;labelBackgroundColor=none;strokeWidth=1;fontFamily=Verdana;fontSize=12;align=center;" parent="1" vertex="1">
          <mxGeometry x="130" y="230" width="110" height="50" as="geometry" />
        </mxCell>
        <mxCell id="Jzxc5cEZgmX9n788ghIn-2" value="&lt;b&gt;Scenic_View&lt;/b&gt;" style="html=1;rounded=0;shadow=0;comic=0;labelBackgroundColor=none;strokeWidth=1;fontFamily=Verdana;fontSize=12;align=center;" parent="1" vertex="1">
          <mxGeometry x="220" y="80" width="110" height="50" as="geometry" />
        </mxCell>
        <mxCell id="Jzxc5cEZgmX9n788ghIn-3" value="&lt;b&gt;LiveView_View&lt;/b&gt;" style="html=1;rounded=0;shadow=0;comic=0;labelBackgroundColor=none;strokeWidth=1;fontFamily=Verdana;fontSize=12;align=center;" parent="1" vertex="1">
          <mxGeometry x="330" y="80" width="110" height="50" as="geometry" />
        </mxCell>
        <mxCell id="Jzxc5cEZgmX9n788ghIn-5" value="Game Runner" style="shape=component;align=left;spacingLeft=36;rounded=0;shadow=0;comic=0;labelBackgroundColor=none;strokeWidth=1;fontFamily=Verdana;fontSize=12;html=1;" parent="1" vertex="1">
          <mxGeometry x="530" y="500" width="120" height="60" as="geometry" />
        </mxCell>
        <mxCell id="39150e848f15840c-10" value="Tournament Organizer" style="shape=component;align=left;spacingLeft=36;rounded=0;shadow=0;comic=0;labelBackgroundColor=none;strokeWidth=1;fontFamily=Verdana;fontSize=12;html=1;" parent="1" vertex="1">
          <mxGeometry x="370" y="500" width="120" height="60" as="geometry" />
        </mxCell>
        <mxCell id="Jzxc5cEZgmX9n788ghIn-6" value="Referee" style="shape=component;align=left;spacingLeft=36;rounded=0;shadow=0;comic=0;labelBackgroundColor=none;strokeWidth=1;fontFamily=Verdana;fontSize=12;html=1;" parent="1" vertex="1">
          <mxGeometry x="720" y="500" width="120" height="60" as="geometry" />
        </mxCell>
        <mxCell id="Jzxc5cEZgmX9n788ghIn-7" style="edgeStyle=none;rounded=0;html=1;dashed=1;labelBackgroundColor=none;startArrow=none;startFill=0;startSize=8;endArrow=open;endFill=0;endSize=16;fontFamily=Verdana;fontSize=12;entryX=0.144;entryY=0.973;entryDx=0;entryDy=0;entryPerimeter=0;exitX=1;exitY=0.75;exitDx=0;exitDy=0;" parent="1" source="Jzxc5cEZgmX9n788ghIn-5" target="Jzxc5cEZgmX9n788ghIn-6" edge="1">
          <mxGeometry relative="1" as="geometry">
            <mxPoint x="550" y="420" as="sourcePoint" />
            <mxPoint x="635" y="259" as="targetPoint" />
          </mxGeometry>
        </mxCell>
        <mxCell id="Jzxc5cEZgmX9n788ghIn-8" style="edgeStyle=none;rounded=0;html=1;dashed=1;labelBackgroundColor=none;startArrow=none;startFill=0;startSize=8;endArrow=open;endFill=0;endSize=16;fontFamily=Verdana;fontSize=12;entryX=0.096;entryY=0.061;entryDx=0;entryDy=0;entryPerimeter=0;exitX=1.008;exitY=0.078;exitDx=0;exitDy=0;exitPerimeter=0;" parent="1" source="39150e848f15840c-10" target="Jzxc5cEZgmX9n788ghIn-5" edge="1">
          <mxGeometry relative="1" as="geometry">
            <mxPoint x="660" y="555" as="sourcePoint" />
            <mxPoint x="851" y="530" as="targetPoint" />
          </mxGeometry>
        </mxCell>
        <mxCell id="Jzxc5cEZgmX9n788ghIn-10" value="TCP_Server" style="rounded=1;whiteSpace=wrap;html=1;fontSize=16;" parent="1" vertex="1">
          <mxGeometry x="540" y="380" width="90" height="30" as="geometry" />
        </mxCell>
        <mxCell id="Jzxc5cEZgmX9n788ghIn-11" value="" style="shape=flexArrow;endArrow=classic;html=1;rounded=0;fontSize=12;startSize=8;endSize=8;curved=1;entryX=0.408;entryY=0.858;entryDx=0;entryDy=0;entryPerimeter=0;" parent="1" source="Jzxc5cEZgmX9n788ghIn-5" target="Jzxc5cEZgmX9n788ghIn-10" edge="1">
          <mxGeometry width="50" height="50" relative="1" as="geometry">
            <mxPoint x="530" y="350" as="sourcePoint" />
            <mxPoint x="580" y="470" as="targetPoint" />
          </mxGeometry>
        </mxCell>
        <mxCell id="Jzxc5cEZgmX9n788ghIn-12" value="" style="curved=1;endArrow=classic;html=1;rounded=0;fontSize=12;startSize=8;endSize=8;" parent="1" edge="1">
          <mxGeometry width="50" height="50" relative="1" as="geometry">
            <mxPoint x="600" y="380" as="sourcePoint" />
            <mxPoint x="630" y="250" as="targetPoint" />
            <Array as="points">
              <mxPoint x="580" y="350" />
              <mxPoint x="700" y="350" />
              <mxPoint x="530" y="300" />
            </Array>
          </mxGeometry>
        </mxCell>
        <mxCell id="Jzxc5cEZgmX9n788ghIn-13" style="edgeStyle=none;rounded=0;html=1;dashed=1;labelBackgroundColor=none;startArrow=none;startFill=0;startSize=8;endArrow=open;endFill=0;endSize=16;fontFamily=Verdana;fontSize=12;entryX=0.379;entryY=-0.089;entryDx=0;entryDy=0;entryPerimeter=0;exitX=0.5;exitY=1;exitDx=0;exitDy=0;" parent="1" source="39150e848f15840c-9" target="Jzxc5cEZgmX9n788ghIn-10" edge="1">
          <mxGeometry relative="1" as="geometry">
            <mxPoint x="550" y="420" as="sourcePoint" />
            <mxPoint x="635" y="259" as="targetPoint" />
          </mxGeometry>
        </mxCell>
        <mxCell id="Jzxc5cEZgmX9n788ghIn-14" value="Server-View" style="verticalAlign=top;align=left;spacingTop=8;spacingLeft=2;spacingRight=12;shape=cube;size=10;direction=south;fontStyle=4;html=1;rounded=0;shadow=0;comic=0;labelBackgroundColor=none;strokeWidth=1;fontFamily=Verdana;fontSize=12" parent="1" vertex="1">
          <mxGeometry x="460" y="590" width="249" height="140" as="geometry" />
        </mxCell>
        <mxCell id="Jzxc5cEZgmX9n788ghIn-15" style="edgeStyle=orthogonalEdgeStyle;rounded=0;html=1;labelBackgroundColor=none;startArrow=none;startFill=0;startSize=8;endArrow=open;endFill=0;endSize=16;fontFamily=Verdana;fontSize=12;dashed=1;" parent="1" edge="1">
          <mxGeometry relative="1" as="geometry">
            <Array as="points">
              <mxPoint x="270" y="150" />
              <mxPoint x="270" y="160" />
              <mxPoint x="245" y="160" />
            </Array>
            <mxPoint x="380" y="150" as="sourcePoint" />
            <mxPoint x="245" y="130" as="targetPoint" />
          </mxGeometry>
        </mxCell>
        <mxCell id="Jzxc5cEZgmX9n788ghIn-16" value="&lt;b&gt;CLI_View&lt;/b&gt;" style="html=1;rounded=0;shadow=0;comic=0;labelBackgroundColor=none;strokeWidth=1;fontFamily=Verdana;fontSize=12;align=center;" parent="1" vertex="1">
          <mxGeometry x="460" y="630" width="110" height="50" as="geometry" />
        </mxCell>
        <mxCell id="Jzxc5cEZgmX9n788ghIn-17" value="&lt;b&gt;LiveView_View&lt;/b&gt;" style="html=1;rounded=0;shadow=0;comic=0;labelBackgroundColor=none;strokeWidth=1;fontFamily=Verdana;fontSize=12;align=center;" parent="1" vertex="1">
          <mxGeometry x="460" y="680" width="110" height="50" as="geometry" />
        </mxCell>
        <mxCell id="Jzxc5cEZgmX9n788ghIn-18" value="&lt;b&gt;Phoenix_View&lt;/b&gt;" style="html=1;rounded=0;shadow=0;comic=0;labelBackgroundColor=none;strokeWidth=1;fontFamily=Verdana;fontSize=12;align=center;" parent="1" vertex="1">
          <mxGeometry x="580" y="680" width="110" height="50" as="geometry" />
        </mxCell>
        <mxCell id="Jzxc5cEZgmX9n788ghIn-19" value="&lt;b&gt;Scenic_View&lt;/b&gt;" style="html=1;rounded=0;shadow=0;comic=0;labelBackgroundColor=none;strokeWidth=1;fontFamily=Verdana;fontSize=12;align=center;" parent="1" vertex="1">
          <mxGeometry x="580" y="630" width="110" height="50" as="geometry" />
        </mxCell>
        <mxCell id="R1NMKCMqHLLnGD4xA51p-2" value="Client-Controller" style="verticalAlign=top;align=left;spacingTop=8;spacingLeft=2;spacingRight=12;shape=cube;size=10;direction=south;fontStyle=4;html=1;rounded=0;shadow=0;comic=0;labelBackgroundColor=none;strokeWidth=1;fontFamily=Verdana;fontSize=12" vertex="1" parent="1">
          <mxGeometry x="630" y="180" width="180" height="100" as="geometry" />
        </mxCell>
        <mxCell id="R1NMKCMqHLLnGD4xA51p-3" value="User(client)" style="shape=umlActor;verticalLabelPosition=bottom;verticalAlign=top;html=1;outlineConnect=0;" vertex="1" parent="1">
          <mxGeometry x="90" y="190" width="30" height="60" as="geometry" />
        </mxCell>
        <mxCell id="R1NMKCMqHLLnGD4xA51p-4" value="Admin(server)" style="shape=umlActor;verticalLabelPosition=bottom;verticalAlign=top;html=1;outlineConnect=0;" vertex="1" parent="1">
          <mxGeometry x="420" y="650" width="30" height="60" as="geometry" />
        </mxCell>
        <mxCell id="R1NMKCMqHLLnGD4xA51p-10" value="" style="ellipse;html=1;shape=endState;fillColor=#000000;strokeColor=#ff0000;" vertex="1" parent="1">
          <mxGeometry x="420" y="630" width="30" height="10" as="geometry" />
        </mxCell>
        <mxCell id="R1NMKCMqHLLnGD4xA51p-11" value="" style="shape=providedRequiredInterface;html=1;verticalLabelPosition=bottom;sketch=0;" vertex="1" parent="1">
          <mxGeometry x="100" y="175" width="20" height="10" as="geometry" />
        </mxCell>
        <mxCell id="R1NMKCMqHLLnGD4xA51p-12" value="Board&lt;span style=&quot;white-space: pre;&quot;&gt; &lt;/span&gt;" style="html=1;rounded=0;shadow=0;comic=0;labelBackgroundColor=none;strokeWidth=1;fontFamily=Verdana;fontSize=12;align=center;" vertex="1" parent="1">
          <mxGeometry x="740" y="130" width="110" height="45" as="geometry" />
        </mxCell>
        <mxCell id="R1NMKCMqHLLnGD4xA51p-13" value="Player" style="shape=component;align=left;spacingLeft=36;rounded=0;shadow=0;comic=0;labelBackgroundColor=none;strokeWidth=1;fontFamily=Verdana;fontSize=12;html=1;" vertex="1" parent="1">
          <mxGeometry x="720" y="395" width="120" height="60" as="geometry" />
        </mxCell>
        <mxCell id="R1NMKCMqHLLnGD4xA51p-14" style="edgeStyle=none;rounded=0;html=1;dashed=1;labelBackgroundColor=none;startArrow=none;startFill=0;startSize=8;endArrow=open;endFill=0;endSize=16;fontFamily=Verdana;fontSize=12;entryX=0;entryY=0.3;entryDx=0;entryDy=0;exitX=0.75;exitY=0;exitDx=0;exitDy=0;" edge="1" parent="1" source="39150e848f15840c-10" target="R1NMKCMqHLLnGD4xA51p-13">
          <mxGeometry relative="1" as="geometry">
            <mxPoint x="501" y="515" as="sourcePoint" />
            <mxPoint x="552" y="514" as="targetPoint" />
          </mxGeometry>
        </mxCell>
        <mxCell id="R1NMKCMqHLLnGD4xA51p-16" value="" style="edgeStyle=orthogonalEdgeStyle;rounded=0;html=1;labelBackgroundColor=none;startArrow=none;startFill=0;startSize=8;endArrow=none;endFill=0;endSize=16;fontFamily=Verdana;fontSize=12;" edge="1" parent="1" source="39150e848f15840c-3" target="R1NMKCMqHLLnGD4xA51p-15">
          <mxGeometry relative="1" as="geometry">
            <Array as="points">
              <mxPoint x="695" y="485" />
            </Array>
            <mxPoint x="630" y="485" as="sourcePoint" />
            <mxPoint x="695" y="290" as="targetPoint" />
          </mxGeometry>
        </mxCell>
        <mxCell id="R1NMKCMqHLLnGD4xA51p-15" value="TCP_Client" style="shape=component;align=left;spacingLeft=36;rounded=0;shadow=0;comic=0;labelBackgroundColor=none;strokeWidth=1;fontFamily=Verdana;fontSize=12;html=1;" vertex="1" parent="1">
          <mxGeometry x="660" y="280" width="120" height="30" as="geometry" />
        </mxCell>
        <mxCell id="R1NMKCMqHLLnGD4xA51p-17" value="TCP_Client" style="shape=component;align=left;spacingLeft=36;rounded=0;shadow=0;comic=0;labelBackgroundColor=none;strokeWidth=1;fontFamily=Verdana;fontSize=12;html=1;" vertex="1" parent="1">
          <mxGeometry x="660" y="230" width="120" height="40" as="geometry" />
        </mxCell>
      </root>
    </mxGraphModel>
  </diagram>
  <diagram name="gchess_eventual_monolith" id="CUPhLtsAMn9_bUERVagt">
    <mxGraphModel dx="714" dy="282" grid="1" gridSize="10" guides="1" tooltips="1" connect="1" arrows="1" fold="1" page="1" pageScale="1" pageWidth="1100" pageHeight="850" background="none" math="0" shadow="0">
      <root>
        <mxCell id="uJChI2P5ZxuK7quzofZG-0" />
        <mxCell id="uJChI2P5ZxuK7quzofZG-1" parent="uJChI2P5ZxuK7quzofZG-0" />
        <mxCell id="uJChI2P5ZxuK7quzofZG-2" value="Server-Model" style="verticalAlign=top;align=left;spacingTop=8;spacingLeft=2;spacingRight=12;shape=cube;size=10;direction=south;fontStyle=4;html=1;rounded=0;shadow=0;comic=0;labelBackgroundColor=none;strokeWidth=1;fontFamily=Verdana;fontSize=12" vertex="1" parent="uJChI2P5ZxuK7quzofZG-1">
          <mxGeometry x="709" y="350" width="330" height="220" as="geometry" />
        </mxCell>
        <mxCell id="uJChI2P5ZxuK7quzofZG-3" value="Client-View" style="verticalAlign=top;align=left;spacingTop=8;spacingLeft=2;spacingRight=12;shape=cube;size=10;direction=south;fontStyle=4;html=1;rounded=0;shadow=0;comic=0;labelBackgroundColor=none;strokeWidth=1;fontFamily=Verdana;fontSize=12" vertex="1" parent="uJChI2P5ZxuK7quzofZG-1">
          <mxGeometry x="120" y="70" width="330" height="220" as="geometry" />
        </mxCell>
        <mxCell id="uJChI2P5ZxuK7quzofZG-4" value="" style="edgeStyle=none;curved=1;rounded=0;orthogonalLoop=1;jettySize=auto;html=1;fontSize=12;startSize=8;endSize=8;" edge="1" parent="uJChI2P5ZxuK7quzofZG-1" source="uJChI2P5ZxuK7quzofZG-5" target="uJChI2P5ZxuK7quzofZG-8">
          <mxGeometry relative="1" as="geometry" />
        </mxCell>
        <mxCell id="uJChI2P5ZxuK7quzofZG-5" value="Client-Model" style="verticalAlign=top;align=left;spacingTop=8;spacingLeft=2;spacingRight=12;shape=cube;size=10;direction=south;fontStyle=4;html=1;rounded=0;shadow=0;comic=0;labelBackgroundColor=none;strokeWidth=1;fontFamily=Verdana;fontSize=12" vertex="1" parent="uJChI2P5ZxuK7quzofZG-1">
          <mxGeometry x="530" y="70" width="330" height="220" as="geometry" />
        </mxCell>
        <mxCell id="uJChI2P5ZxuK7quzofZG-6" value="Server-Controller" style="verticalAlign=top;align=left;spacingTop=8;spacingLeft=2;spacingRight=12;shape=cube;size=10;direction=south;fontStyle=4;html=1;rounded=0;shadow=0;comic=0;labelBackgroundColor=none;strokeWidth=1;fontFamily=Verdana;fontSize=12" vertex="1" parent="uJChI2P5ZxuK7quzofZG-1">
          <mxGeometry x="370" y="410" width="260" height="150" as="geometry" />
        </mxCell>
        <mxCell id="uJChI2P5ZxuK7quzofZG-7" value="&lt;b&gt;CLI_View&lt;/b&gt;" style="html=1;rounded=0;shadow=0;comic=0;labelBackgroundColor=none;strokeWidth=1;fontFamily=Verdana;fontSize=12;align=center;" vertex="1" parent="uJChI2P5ZxuK7quzofZG-1">
          <mxGeometry x="120" y="140" width="110" height="50" as="geometry" />
        </mxCell>
        <mxCell id="uJChI2P5ZxuK7quzofZG-8" value="View" style="shape=component;align=left;spacingLeft=36;rounded=0;shadow=0;comic=0;labelBackgroundColor=none;strokeWidth=1;fontFamily=Verdana;fontSize=12;html=1;" vertex="1" parent="uJChI2P5ZxuK7quzofZG-1">
          <mxGeometry x="310" y="150" width="120" height="60" as="geometry" />
        </mxCell>
        <mxCell id="uJChI2P5ZxuK7quzofZG-9" value="" style="ellipse;whiteSpace=wrap;html=1;rounded=0;shadow=0;comic=0;labelBackgroundColor=none;strokeWidth=1;fontFamily=Verdana;fontSize=12;align=center;" vertex="1" parent="uJChI2P5ZxuK7quzofZG-1">
          <mxGeometry x="360" y="230" width="20" height="20" as="geometry" />
        </mxCell>
        <mxCell id="uJChI2P5ZxuK7quzofZG-10" value="Model" style="shape=component;align=left;spacingLeft=36;rounded=0;shadow=0;comic=0;labelBackgroundColor=none;strokeWidth=1;fontFamily=Verdana;fontSize=12;html=1;" vertex="1" parent="uJChI2P5ZxuK7quzofZG-1">
          <mxGeometry x="530" y="110" width="120" height="60" as="geometry" />
        </mxCell>
        <mxCell id="uJChI2P5ZxuK7quzofZG-11" value="Board&lt;span style=&quot;white-space: pre;&quot;&gt; &lt;/span&gt;" style="html=1;rounded=0;shadow=0;comic=0;labelBackgroundColor=none;strokeWidth=1;fontFamily=Verdana;fontSize=12;align=center;" vertex="1" parent="uJChI2P5ZxuK7quzofZG-1">
          <mxGeometry x="740" y="80" width="110" height="50" as="geometry" />
        </mxCell>
        <mxCell id="uJChI2P5ZxuK7quzofZG-12" value="" style="ellipse;whiteSpace=wrap;html=1;rounded=0;shadow=0;comic=0;labelBackgroundColor=none;strokeWidth=1;fontFamily=Verdana;fontSize=12;align=center;" vertex="1" parent="uJChI2P5ZxuK7quzofZG-1">
          <mxGeometry x="620" y="230" width="20" height="20" as="geometry" />
        </mxCell>
        <mxCell id="uJChI2P5ZxuK7quzofZG-13" style="edgeStyle=none;rounded=0;html=1;dashed=1;labelBackgroundColor=none;startArrow=none;startFill=0;startSize=8;endArrow=open;endFill=0;endSize=16;fontFamily=Verdana;fontSize=12;entryX=-0.034;entryY=0.649;entryDx=0;entryDy=0;entryPerimeter=0;" edge="1" parent="uJChI2P5ZxuK7quzofZG-1" source="uJChI2P5ZxuK7quzofZG-25" target="uJChI2P5ZxuK7quzofZG-33">
          <mxGeometry relative="1" as="geometry" />
        </mxCell>
        <mxCell id="uJChI2P5ZxuK7quzofZG-14" style="edgeStyle=none;rounded=0;html=1;dashed=1;labelBackgroundColor=none;startArrow=none;startFill=0;startSize=8;endArrow=open;endFill=0;endSize=16;fontFamily=Verdana;fontSize=12;exitX=0.25;exitY=0;exitDx=0;exitDy=0;" edge="1" parent="uJChI2P5ZxuK7quzofZG-1" source="uJChI2P5ZxuK7quzofZG-29" target="uJChI2P5ZxuK7quzofZG-12">
          <mxGeometry relative="1" as="geometry" />
        </mxCell>
        <mxCell id="uJChI2P5ZxuK7quzofZG-15" style="edgeStyle=elbowEdgeStyle;rounded=0;html=1;labelBackgroundColor=none;startArrow=none;startFill=0;startSize=8;endArrow=none;endFill=0;endSize=16;fontFamily=Verdana;fontSize=12;" edge="1" parent="uJChI2P5ZxuK7quzofZG-1" source="uJChI2P5ZxuK7quzofZG-12" target="uJChI2P5ZxuK7quzofZG-10">
          <mxGeometry relative="1" as="geometry" />
        </mxCell>
        <mxCell id="uJChI2P5ZxuK7quzofZG-16" style="edgeStyle=elbowEdgeStyle;rounded=0;html=1;labelBackgroundColor=none;startArrow=none;startFill=0;startSize=8;endArrow=none;endFill=0;endSize=16;fontFamily=Verdana;fontSize=12;" edge="1" parent="uJChI2P5ZxuK7quzofZG-1" source="uJChI2P5ZxuK7quzofZG-9" target="uJChI2P5ZxuK7quzofZG-8">
          <mxGeometry relative="1" as="geometry" />
        </mxCell>
        <mxCell id="uJChI2P5ZxuK7quzofZG-17" style="edgeStyle=orthogonalEdgeStyle;rounded=0;html=1;labelBackgroundColor=none;startArrow=none;startFill=0;startSize=8;endArrow=open;endFill=0;endSize=16;fontFamily=Verdana;fontSize=12;dashed=1;" edge="1" parent="uJChI2P5ZxuK7quzofZG-1" source="uJChI2P5ZxuK7quzofZG-8" target="uJChI2P5ZxuK7quzofZG-7">
          <mxGeometry relative="1" as="geometry">
            <Array as="points">
              <mxPoint x="350" y="220" />
              <mxPoint x="215" y="220" />
            </Array>
          </mxGeometry>
        </mxCell>
        <mxCell id="uJChI2P5ZxuK7quzofZG-18" style="edgeStyle=orthogonalEdgeStyle;rounded=0;html=1;dashed=1;labelBackgroundColor=none;startArrow=none;startFill=0;startSize=8;endArrow=open;endFill=0;endSize=16;fontFamily=Verdana;fontSize=12;" edge="1" parent="uJChI2P5ZxuK7quzofZG-1" source="uJChI2P5ZxuK7quzofZG-10" target="uJChI2P5ZxuK7quzofZG-11">
          <mxGeometry relative="1" as="geometry" />
        </mxCell>
        <mxCell id="uJChI2P5ZxuK7quzofZG-19" style="edgeStyle=orthogonalEdgeStyle;rounded=0;html=1;labelBackgroundColor=none;startArrow=none;startFill=0;startSize=8;endArrow=none;endFill=0;endSize=16;fontFamily=Verdana;fontSize=12;" edge="1" parent="uJChI2P5ZxuK7quzofZG-1" source="uJChI2P5ZxuK7quzofZG-48" target="uJChI2P5ZxuK7quzofZG-5">
          <mxGeometry relative="1" as="geometry">
            <Array as="points" />
          </mxGeometry>
        </mxCell>
        <mxCell id="uJChI2P5ZxuK7quzofZG-20" style="edgeStyle=orthogonalEdgeStyle;rounded=0;html=1;labelBackgroundColor=none;startArrow=none;startFill=0;startSize=8;endArrow=none;endFill=0;endSize=16;fontFamily=Verdana;fontSize=12;" edge="1" parent="uJChI2P5ZxuK7quzofZG-1" source="uJChI2P5ZxuK7quzofZG-6" target="uJChI2P5ZxuK7quzofZG-3">
          <mxGeometry relative="1" as="geometry">
            <Array as="points">
              <mxPoint x="285" y="485" />
            </Array>
          </mxGeometry>
        </mxCell>
        <mxCell id="uJChI2P5ZxuK7quzofZG-21" value="&lt;b&gt;Phoenix_View&lt;/b&gt;" style="html=1;rounded=0;shadow=0;comic=0;labelBackgroundColor=none;strokeWidth=1;fontFamily=Verdana;fontSize=12;align=center;" vertex="1" parent="uJChI2P5ZxuK7quzofZG-1">
          <mxGeometry x="130" y="230" width="110" height="50" as="geometry" />
        </mxCell>
        <mxCell id="uJChI2P5ZxuK7quzofZG-22" value="&lt;b&gt;Scenic_View&lt;/b&gt;" style="html=1;rounded=0;shadow=0;comic=0;labelBackgroundColor=none;strokeWidth=1;fontFamily=Verdana;fontSize=12;align=center;" vertex="1" parent="uJChI2P5ZxuK7quzofZG-1">
          <mxGeometry x="220" y="80" width="110" height="50" as="geometry" />
        </mxCell>
        <mxCell id="uJChI2P5ZxuK7quzofZG-23" value="&lt;b&gt;LiveView_View&lt;/b&gt;" style="html=1;rounded=0;shadow=0;comic=0;labelBackgroundColor=none;strokeWidth=1;fontFamily=Verdana;fontSize=12;align=center;" vertex="1" parent="uJChI2P5ZxuK7quzofZG-1">
          <mxGeometry x="330" y="80" width="110" height="50" as="geometry" />
        </mxCell>
        <mxCell id="uJChI2P5ZxuK7quzofZG-24" value="Game Runner" style="shape=component;align=left;spacingLeft=36;rounded=0;shadow=0;comic=0;labelBackgroundColor=none;strokeWidth=1;fontFamily=Verdana;fontSize=12;html=1;" vertex="1" parent="uJChI2P5ZxuK7quzofZG-1">
          <mxGeometry x="530" y="500" width="120" height="60" as="geometry" />
        </mxCell>
        <mxCell id="uJChI2P5ZxuK7quzofZG-25" value="Tournament Organizer" style="shape=component;align=left;spacingLeft=36;rounded=0;shadow=0;comic=0;labelBackgroundColor=none;strokeWidth=1;fontFamily=Verdana;fontSize=12;html=1;" vertex="1" parent="uJChI2P5ZxuK7quzofZG-1">
          <mxGeometry x="370" y="500" width="120" height="60" as="geometry" />
        </mxCell>
        <mxCell id="uJChI2P5ZxuK7quzofZG-26" value="Referee" style="shape=component;align=left;spacingLeft=36;rounded=0;shadow=0;comic=0;labelBackgroundColor=none;strokeWidth=1;fontFamily=Verdana;fontSize=12;html=1;" vertex="1" parent="uJChI2P5ZxuK7quzofZG-1">
          <mxGeometry x="720" y="500" width="120" height="60" as="geometry" />
        </mxCell>
        <mxCell id="uJChI2P5ZxuK7quzofZG-27" style="edgeStyle=none;rounded=0;html=1;dashed=1;labelBackgroundColor=none;startArrow=none;startFill=0;startSize=8;endArrow=open;endFill=0;endSize=16;fontFamily=Verdana;fontSize=12;entryX=0.144;entryY=0.973;entryDx=0;entryDy=0;entryPerimeter=0;exitX=1;exitY=0.75;exitDx=0;exitDy=0;" edge="1" parent="uJChI2P5ZxuK7quzofZG-1" source="uJChI2P5ZxuK7quzofZG-24" target="uJChI2P5ZxuK7quzofZG-26">
          <mxGeometry relative="1" as="geometry">
            <mxPoint x="550" y="420" as="sourcePoint" />
            <mxPoint x="635" y="259" as="targetPoint" />
          </mxGeometry>
        </mxCell>
        <mxCell id="uJChI2P5ZxuK7quzofZG-28" style="edgeStyle=none;rounded=0;html=1;dashed=1;labelBackgroundColor=none;startArrow=none;startFill=0;startSize=8;endArrow=open;endFill=0;endSize=16;fontFamily=Verdana;fontSize=12;entryX=0.096;entryY=0.061;entryDx=0;entryDy=0;entryPerimeter=0;exitX=1.008;exitY=0.078;exitDx=0;exitDy=0;exitPerimeter=0;" edge="1" parent="uJChI2P5ZxuK7quzofZG-1" source="uJChI2P5ZxuK7quzofZG-25" target="uJChI2P5ZxuK7quzofZG-24">
          <mxGeometry relative="1" as="geometry">
            <mxPoint x="660" y="555" as="sourcePoint" />
            <mxPoint x="851" y="530" as="targetPoint" />
          </mxGeometry>
        </mxCell>
        <mxCell id="uJChI2P5ZxuK7quzofZG-29" value="TCP_Server" style="rounded=1;whiteSpace=wrap;html=1;fontSize=16;" vertex="1" parent="uJChI2P5ZxuK7quzofZG-1">
          <mxGeometry x="540" y="380" width="90" height="30" as="geometry" />
        </mxCell>
        <mxCell id="uJChI2P5ZxuK7quzofZG-30" value="" style="shape=flexArrow;endArrow=classic;html=1;rounded=0;fontSize=12;startSize=8;endSize=8;curved=1;entryX=0.408;entryY=0.858;entryDx=0;entryDy=0;entryPerimeter=0;" edge="1" parent="uJChI2P5ZxuK7quzofZG-1" source="uJChI2P5ZxuK7quzofZG-24" target="uJChI2P5ZxuK7quzofZG-29">
          <mxGeometry width="50" height="50" relative="1" as="geometry">
            <mxPoint x="530" y="350" as="sourcePoint" />
            <mxPoint x="580" y="470" as="targetPoint" />
          </mxGeometry>
        </mxCell>
        <mxCell id="uJChI2P5ZxuK7quzofZG-31" value="" style="curved=1;endArrow=classic;html=1;rounded=0;fontSize=12;startSize=8;endSize=8;" edge="1" parent="uJChI2P5ZxuK7quzofZG-1">
          <mxGeometry width="50" height="50" relative="1" as="geometry">
            <mxPoint x="600" y="380" as="sourcePoint" />
            <mxPoint x="630" y="250" as="targetPoint" />
            <Array as="points">
              <mxPoint x="580" y="350" />
              <mxPoint x="700" y="350" />
              <mxPoint x="530" y="300" />
            </Array>
          </mxGeometry>
        </mxCell>
        <mxCell id="uJChI2P5ZxuK7quzofZG-32" style="edgeStyle=none;rounded=0;html=1;dashed=1;labelBackgroundColor=none;startArrow=none;startFill=0;startSize=8;endArrow=open;endFill=0;endSize=16;fontFamily=Verdana;fontSize=12;entryX=0.379;entryY=-0.089;entryDx=0;entryDy=0;entryPerimeter=0;exitX=0.5;exitY=1;exitDx=0;exitDy=0;" edge="1" parent="uJChI2P5ZxuK7quzofZG-1" source="uJChI2P5ZxuK7quzofZG-12" target="uJChI2P5ZxuK7quzofZG-29">
          <mxGeometry relative="1" as="geometry">
            <mxPoint x="550" y="420" as="sourcePoint" />
            <mxPoint x="635" y="259" as="targetPoint" />
          </mxGeometry>
        </mxCell>
        <mxCell id="uJChI2P5ZxuK7quzofZG-33" value="Server-View" style="verticalAlign=top;align=left;spacingTop=8;spacingLeft=2;spacingRight=12;shape=cube;size=10;direction=south;fontStyle=4;html=1;rounded=0;shadow=0;comic=0;labelBackgroundColor=none;strokeWidth=1;fontFamily=Verdana;fontSize=12" vertex="1" parent="uJChI2P5ZxuK7quzofZG-1">
          <mxGeometry x="460" y="590" width="249" height="140" as="geometry" />
        </mxCell>
        <mxCell id="uJChI2P5ZxuK7quzofZG-34" style="edgeStyle=orthogonalEdgeStyle;rounded=0;html=1;labelBackgroundColor=none;startArrow=none;startFill=0;startSize=8;endArrow=open;endFill=0;endSize=16;fontFamily=Verdana;fontSize=12;dashed=1;" edge="1" parent="uJChI2P5ZxuK7quzofZG-1">
          <mxGeometry relative="1" as="geometry">
            <Array as="points">
              <mxPoint x="270" y="150" />
              <mxPoint x="270" y="160" />
              <mxPoint x="245" y="160" />
            </Array>
            <mxPoint x="380" y="150" as="sourcePoint" />
            <mxPoint x="245" y="130" as="targetPoint" />
          </mxGeometry>
        </mxCell>
        <mxCell id="uJChI2P5ZxuK7quzofZG-35" value="&lt;b&gt;CLI_View&lt;/b&gt;" style="html=1;rounded=0;shadow=0;comic=0;labelBackgroundColor=none;strokeWidth=1;fontFamily=Verdana;fontSize=12;align=center;" vertex="1" parent="uJChI2P5ZxuK7quzofZG-1">
          <mxGeometry x="460" y="630" width="110" height="50" as="geometry" />
        </mxCell>
        <mxCell id="uJChI2P5ZxuK7quzofZG-36" value="&lt;b&gt;LiveView_View&lt;/b&gt;" style="html=1;rounded=0;shadow=0;comic=0;labelBackgroundColor=none;strokeWidth=1;fontFamily=Verdana;fontSize=12;align=center;" vertex="1" parent="uJChI2P5ZxuK7quzofZG-1">
          <mxGeometry x="460" y="680" width="110" height="50" as="geometry" />
        </mxCell>
        <mxCell id="uJChI2P5ZxuK7quzofZG-37" value="&lt;b&gt;Phoenix_View&lt;/b&gt;" style="html=1;rounded=0;shadow=0;comic=0;labelBackgroundColor=none;strokeWidth=1;fontFamily=Verdana;fontSize=12;align=center;" vertex="1" parent="uJChI2P5ZxuK7quzofZG-1">
          <mxGeometry x="580" y="680" width="110" height="50" as="geometry" />
        </mxCell>
        <mxCell id="uJChI2P5ZxuK7quzofZG-38" value="&lt;b&gt;Scenic_View&lt;/b&gt;" style="html=1;rounded=0;shadow=0;comic=0;labelBackgroundColor=none;strokeWidth=1;fontFamily=Verdana;fontSize=12;align=center;" vertex="1" parent="uJChI2P5ZxuK7quzofZG-1">
          <mxGeometry x="580" y="630" width="110" height="50" as="geometry" />
        </mxCell>
        <mxCell id="uJChI2P5ZxuK7quzofZG-39" value="Client-Controller" style="verticalAlign=top;align=left;spacingTop=8;spacingLeft=2;spacingRight=12;shape=cube;size=10;direction=south;fontStyle=4;html=1;rounded=0;shadow=0;comic=0;labelBackgroundColor=none;strokeWidth=1;fontFamily=Verdana;fontSize=12" vertex="1" parent="uJChI2P5ZxuK7quzofZG-1">
          <mxGeometry x="630" y="180" width="180" height="100" as="geometry" />
        </mxCell>
        <mxCell id="uJChI2P5ZxuK7quzofZG-40" value="User(client)" style="shape=umlActor;verticalLabelPosition=bottom;verticalAlign=top;html=1;outlineConnect=0;" vertex="1" parent="uJChI2P5ZxuK7quzofZG-1">
          <mxGeometry x="90" y="190" width="30" height="60" as="geometry" />
        </mxCell>
        <mxCell id="uJChI2P5ZxuK7quzofZG-41" value="Admin(server)" style="shape=umlActor;verticalLabelPosition=bottom;verticalAlign=top;html=1;outlineConnect=0;" vertex="1" parent="uJChI2P5ZxuK7quzofZG-1">
          <mxGeometry x="420" y="650" width="30" height="60" as="geometry" />
        </mxCell>
        <mxCell id="uJChI2P5ZxuK7quzofZG-42" value="" style="ellipse;html=1;shape=endState;fillColor=#000000;strokeColor=#ff0000;" vertex="1" parent="uJChI2P5ZxuK7quzofZG-1">
          <mxGeometry x="420" y="630" width="30" height="10" as="geometry" />
        </mxCell>
        <mxCell id="uJChI2P5ZxuK7quzofZG-43" value="" style="shape=providedRequiredInterface;html=1;verticalLabelPosition=bottom;sketch=0;" vertex="1" parent="uJChI2P5ZxuK7quzofZG-1">
          <mxGeometry x="100" y="175" width="20" height="10" as="geometry" />
        </mxCell>
        <mxCell id="uJChI2P5ZxuK7quzofZG-44" value="Board&lt;span style=&quot;white-space: pre;&quot;&gt; &lt;/span&gt;" style="html=1;rounded=0;shadow=0;comic=0;labelBackgroundColor=none;strokeWidth=1;fontFamily=Verdana;fontSize=12;align=center;" vertex="1" parent="uJChI2P5ZxuK7quzofZG-1">
          <mxGeometry x="740" y="130" width="110" height="45" as="geometry" />
        </mxCell>
        <mxCell id="uJChI2P5ZxuK7quzofZG-45" value="Player" style="shape=component;align=left;spacingLeft=36;rounded=0;shadow=0;comic=0;labelBackgroundColor=none;strokeWidth=1;fontFamily=Verdana;fontSize=12;html=1;" vertex="1" parent="uJChI2P5ZxuK7quzofZG-1">
          <mxGeometry x="720" y="395" width="120" height="60" as="geometry" />
        </mxCell>
        <mxCell id="uJChI2P5ZxuK7quzofZG-46" style="edgeStyle=none;rounded=0;html=1;dashed=1;labelBackgroundColor=none;startArrow=none;startFill=0;startSize=8;endArrow=open;endFill=0;endSize=16;fontFamily=Verdana;fontSize=12;entryX=0;entryY=0.3;entryDx=0;entryDy=0;exitX=0.75;exitY=0;exitDx=0;exitDy=0;" edge="1" parent="uJChI2P5ZxuK7quzofZG-1" source="uJChI2P5ZxuK7quzofZG-25" target="uJChI2P5ZxuK7quzofZG-45">
          <mxGeometry relative="1" as="geometry">
            <mxPoint x="501" y="515" as="sourcePoint" />
            <mxPoint x="552" y="514" as="targetPoint" />
          </mxGeometry>
        </mxCell>
        <mxCell id="uJChI2P5ZxuK7quzofZG-47" value="" style="edgeStyle=orthogonalEdgeStyle;rounded=0;html=1;labelBackgroundColor=none;startArrow=none;startFill=0;startSize=8;endArrow=none;endFill=0;endSize=16;fontFamily=Verdana;fontSize=12;" edge="1" parent="uJChI2P5ZxuK7quzofZG-1" source="uJChI2P5ZxuK7quzofZG-6" target="uJChI2P5ZxuK7quzofZG-48">
          <mxGeometry relative="1" as="geometry">
            <Array as="points">
              <mxPoint x="695" y="485" />
            </Array>
            <mxPoint x="630" y="485" as="sourcePoint" />
            <mxPoint x="695" y="290" as="targetPoint" />
          </mxGeometry>
        </mxCell>
        <mxCell id="uJChI2P5ZxuK7quzofZG-48" value="TCP_Client" style="shape=component;align=left;spacingLeft=36;rounded=0;shadow=0;comic=0;labelBackgroundColor=none;strokeWidth=1;fontFamily=Verdana;fontSize=12;html=1;" vertex="1" parent="uJChI2P5ZxuK7quzofZG-1">
          <mxGeometry x="660" y="280" width="120" height="30" as="geometry" />
        </mxCell>
        <mxCell id="uJChI2P5ZxuK7quzofZG-49" value="TCP_Client" style="shape=component;align=left;spacingLeft=36;rounded=0;shadow=0;comic=0;labelBackgroundColor=none;strokeWidth=1;fontFamily=Verdana;fontSize=12;html=1;" vertex="1" parent="uJChI2P5ZxuK7quzofZG-1">
          <mxGeometry x="660" y="230" width="120" height="40" as="geometry" />
        </mxCell>
      </root>
    </mxGraphModel>
  </diagram>
  <diagram id="UrqbuiKWvMA4o3Jq6fLM" name="Model">
    <mxGraphModel dx="506" dy="205" grid="1" gridSize="10" guides="1" tooltips="1" connect="1" arrows="1" fold="1" page="1" pageScale="1" pageWidth="850" pageHeight="1100" math="0" shadow="0">
      <root>
        <mxCell id="0" />
        <mxCell id="1" parent="0" />
        <mxCell id="eCQYx24zuToegmJU3gOi-1" value="" style="shape=actor;whiteSpace=wrap;html=1;" vertex="1" parent="1">
          <mxGeometry x="110" y="80" width="40" height="60" as="geometry" />
        </mxCell>
        <mxCell id="eCQYx24zuToegmJU3gOi-6" value="" style="verticalLabelPosition=bottom;verticalAlign=top;html=1;shape=mxgraph.basic.diag_stripe;dx=10;direction=south;" vertex="1" parent="1">
          <mxGeometry x="140" y="85" width="70" height="50" as="geometry" />
        </mxCell>
        <mxCell id="eCQYx24zuToegmJU3gOi-11" value="" style="group" vertex="1" connectable="0" parent="1">
          <mxGeometry x="150" y="70" width="150" height="140" as="geometry" />
        </mxCell>
        <mxCell id="eCQYx24zuToegmJU3gOi-5" value="" style="verticalLabelPosition=bottom;verticalAlign=top;html=1;shape=mxgraph.basic.cone" vertex="1" parent="eCQYx24zuToegmJU3gOi-11">
          <mxGeometry width="150" height="140" as="geometry" />
        </mxCell>
        <mxCell id="eCQYx24zuToegmJU3gOi-8" value="&lt;div&gt;..type..&lt;/div&gt;&lt;div&gt;..click..&lt;/div&gt;&lt;div&gt;..drag..&lt;/div&gt;&lt;div&gt;..drop..&lt;/div&gt;&lt;div&gt;..click, second click..&lt;/div&gt;&lt;div&gt;...arrow key...&lt;/div&gt;&lt;div&gt;..enter..&lt;/div&gt;&lt;div&gt;..cursor movement...&lt;br&gt;&lt;/div&gt;" style="text;html=1;align=center;verticalAlign=middle;resizable=0;points=[];autosize=1;strokeColor=none;fillColor=none;" vertex="1" parent="eCQYx24zuToegmJU3gOi-11">
          <mxGeometry x="10" y="5" width="130" height="130" as="geometry" />
        </mxCell>
        <mxCell id="eCQYx24zuToegmJU3gOi-7" value="" style="whiteSpace=wrap;html=1;shape=mxgraph.basic.pointed_oval" vertex="1" parent="eCQYx24zuToegmJU3gOi-11">
          <mxGeometry x="100" y="-23" width="50" height="48" as="geometry" />
        </mxCell>
        <mxCell id="eCQYx24zuToegmJU3gOi-12" value="" style="group" vertex="1" connectable="0" parent="1">
          <mxGeometry x="140" y="20" width="91" height="60" as="geometry" />
        </mxCell>
        <mxCell id="eCQYx24zuToegmJU3gOi-2" value="&lt;div align=&quot;center&quot;&gt;&lt;br&gt;&lt;/div&gt;" style="whiteSpace=wrap;html=1;shape=mxgraph.basic.cloud_callout;align=center;" vertex="1" parent="eCQYx24zuToegmJU3gOi-12">
          <mxGeometry width="90" height="60" as="geometry" />
        </mxCell>
        <mxCell id="eCQYx24zuToegmJU3gOi-3" value="&lt;div align=&quot;center&quot;&gt;&lt;font data-font-src=&quot;https://fonts.googleapis.com/css?family=Alkatra&quot; style=&quot;font-size: 10px;&quot; face=&quot;Alkatra&quot;&gt;I want play chs&lt;/font&gt;&lt;/div&gt;" style="text;html=1;align=center;verticalAlign=middle;resizable=0;points=[];autosize=1;strokeColor=none;fillColor=none;" vertex="1" parent="eCQYx24zuToegmJU3gOi-12">
          <mxGeometry x="1" y="8" width="90" height="30" as="geometry" />
        </mxCell>
        <mxCell id="eCQYx24zuToegmJU3gOi-15" value="" style="verticalLabelPosition=bottom;verticalAlign=top;html=1;shape=mxgraph.basic.plaque_frame;dx=10;whiteSpace=wrap;" vertex="1" parent="1">
          <mxGeometry x="300" y="30" width="200" height="100" as="geometry" />
        </mxCell>
        <mxCell id="eCQYx24zuToegmJU3gOi-315" value="Backwards Chess" style="text;html=1;align=center;verticalAlign=middle;resizable=0;points=[];autosize=1;strokeColor=none;fillColor=none;" vertex="1" parent="1">
          <mxGeometry x="380" y="10" width="120" height="30" as="geometry" />
        </mxCell>
        <mxCell id="eCQYx24zuToegmJU3gOi-316" value="" style="group" vertex="1" connectable="0" parent="1">
          <mxGeometry x="330" y="65" width="40" height="40" as="geometry" />
        </mxCell>
        <mxCell id="eCQYx24zuToegmJU3gOi-35" value="" style="group" vertex="1" connectable="0" parent="eCQYx24zuToegmJU3gOi-316">
          <mxGeometry width="40" height="20" as="geometry" />
        </mxCell>
        <mxCell id="eCQYx24zuToegmJU3gOi-25" value="" style="group" vertex="1" connectable="0" parent="eCQYx24zuToegmJU3gOi-35">
          <mxGeometry width="40" height="20" as="geometry" />
        </mxCell>
        <mxCell id="eCQYx24zuToegmJU3gOi-34" value="" style="group" vertex="1" connectable="0" parent="eCQYx24zuToegmJU3gOi-25">
          <mxGeometry width="40" height="20" as="geometry" />
        </mxCell>
        <mxCell id="eCQYx24zuToegmJU3gOi-19" value="" style="group" vertex="1" connectable="0" parent="eCQYx24zuToegmJU3gOi-34">
          <mxGeometry width="40" height="20" as="geometry" />
        </mxCell>
        <mxCell id="eCQYx24zuToegmJU3gOi-24" value="" style="group" vertex="1" connectable="0" parent="eCQYx24zuToegmJU3gOi-19">
          <mxGeometry width="40" height="20" as="geometry" />
        </mxCell>
        <mxCell id="eCQYx24zuToegmJU3gOi-16" value="" style="verticalLabelPosition=bottom;verticalAlign=top;html=1;shape=mxgraph.basic.patternFillRect;fillStyle=grid;step=5;fillStrokeWidth=0.2;fillStrokeColor=#dddddd;fillColor=#FFD966;" vertex="1" parent="eCQYx24zuToegmJU3gOi-24">
          <mxGeometry width="5" height="5" as="geometry" />
        </mxCell>
        <mxCell id="eCQYx24zuToegmJU3gOi-17" value="" style="verticalLabelPosition=bottom;verticalAlign=top;html=1;shape=mxgraph.basic.patternFillRect;fillStyle=grid;step=5;fillStrokeWidth=0.2;fillStrokeColor=#dddddd;fillColor=#0000FF;" vertex="1" parent="eCQYx24zuToegmJU3gOi-24">
          <mxGeometry x="5" width="5" height="5" as="geometry" />
        </mxCell>
        <mxCell id="eCQYx24zuToegmJU3gOi-36" value="" style="group" vertex="1" connectable="0" parent="eCQYx24zuToegmJU3gOi-24">
          <mxGeometry y="5" width="40" height="15" as="geometry" />
        </mxCell>
        <mxCell id="eCQYx24zuToegmJU3gOi-37" value="" style="group" vertex="1" connectable="0" parent="eCQYx24zuToegmJU3gOi-36">
          <mxGeometry width="40" height="15" as="geometry" />
        </mxCell>
        <mxCell id="eCQYx24zuToegmJU3gOi-38" value="" style="group" vertex="1" connectable="0" parent="eCQYx24zuToegmJU3gOi-37">
          <mxGeometry width="40" height="15" as="geometry" />
        </mxCell>
        <mxCell id="eCQYx24zuToegmJU3gOi-39" value="" style="group" vertex="1" connectable="0" parent="eCQYx24zuToegmJU3gOi-38">
          <mxGeometry width="40" height="15" as="geometry" />
        </mxCell>
        <mxCell id="eCQYx24zuToegmJU3gOi-40" value="" style="group" vertex="1" connectable="0" parent="eCQYx24zuToegmJU3gOi-39">
          <mxGeometry width="40" height="15" as="geometry" />
        </mxCell>
        <mxCell id="eCQYx24zuToegmJU3gOi-41" value="" style="verticalLabelPosition=bottom;verticalAlign=top;html=1;shape=mxgraph.basic.patternFillRect;fillStyle=grid;step=5;fillStrokeWidth=0.2;fillStrokeColor=#dddddd;fillColor=#FFD966;" vertex="1" parent="eCQYx24zuToegmJU3gOi-40">
          <mxGeometry x="5" width="5" height="5" as="geometry" />
        </mxCell>
        <mxCell id="eCQYx24zuToegmJU3gOi-42" value="" style="verticalLabelPosition=bottom;verticalAlign=top;html=1;shape=mxgraph.basic.patternFillRect;fillStyle=grid;step=5;fillStrokeWidth=0.2;fillStrokeColor=#dddddd;fillColor=#0000FF;" vertex="1" parent="eCQYx24zuToegmJU3gOi-40">
          <mxGeometry width="5" height="5" as="geometry" />
        </mxCell>
        <mxCell id="eCQYx24zuToegmJU3gOi-94" value="" style="group" vertex="1" connectable="0" parent="eCQYx24zuToegmJU3gOi-40">
          <mxGeometry y="5" width="40" height="10" as="geometry" />
        </mxCell>
        <mxCell id="eCQYx24zuToegmJU3gOi-95" value="" style="group" vertex="1" connectable="0" parent="eCQYx24zuToegmJU3gOi-94">
          <mxGeometry width="40" height="10" as="geometry" />
        </mxCell>
        <mxCell id="eCQYx24zuToegmJU3gOi-96" value="" style="group" vertex="1" connectable="0" parent="eCQYx24zuToegmJU3gOi-95">
          <mxGeometry width="40" height="10" as="geometry" />
        </mxCell>
        <mxCell id="eCQYx24zuToegmJU3gOi-97" value="" style="group" vertex="1" connectable="0" parent="eCQYx24zuToegmJU3gOi-96">
          <mxGeometry width="40" height="10" as="geometry" />
        </mxCell>
        <mxCell id="eCQYx24zuToegmJU3gOi-98" value="" style="group" vertex="1" connectable="0" parent="eCQYx24zuToegmJU3gOi-97">
          <mxGeometry width="40" height="10" as="geometry" />
        </mxCell>
        <mxCell id="eCQYx24zuToegmJU3gOi-99" value="" style="verticalLabelPosition=bottom;verticalAlign=top;html=1;shape=mxgraph.basic.patternFillRect;fillStyle=grid;step=5;fillStrokeWidth=0.2;fillStrokeColor=#dddddd;fillColor=#FFD966;" vertex="1" parent="eCQYx24zuToegmJU3gOi-98">
          <mxGeometry width="5" height="5" as="geometry" />
        </mxCell>
        <mxCell id="eCQYx24zuToegmJU3gOi-100" value="" style="verticalLabelPosition=bottom;verticalAlign=top;html=1;shape=mxgraph.basic.patternFillRect;fillStyle=grid;step=5;fillStrokeWidth=0.2;fillStrokeColor=#dddddd;fillColor=#0000FF;" vertex="1" parent="eCQYx24zuToegmJU3gOi-98">
          <mxGeometry x="5" width="5" height="5" as="geometry" />
        </mxCell>
        <mxCell id="eCQYx24zuToegmJU3gOi-101" value="" style="group" vertex="1" connectable="0" parent="eCQYx24zuToegmJU3gOi-98">
          <mxGeometry y="5" width="40" height="5" as="geometry" />
        </mxCell>
        <mxCell id="eCQYx24zuToegmJU3gOi-102" value="" style="group" vertex="1" connectable="0" parent="eCQYx24zuToegmJU3gOi-101">
          <mxGeometry width="20" height="5" as="geometry" />
        </mxCell>
        <mxCell id="eCQYx24zuToegmJU3gOi-103" value="" style="group" vertex="1" connectable="0" parent="eCQYx24zuToegmJU3gOi-102">
          <mxGeometry width="20" height="5" as="geometry" />
        </mxCell>
        <mxCell id="eCQYx24zuToegmJU3gOi-104" value="" style="group" vertex="1" connectable="0" parent="eCQYx24zuToegmJU3gOi-103">
          <mxGeometry width="10" height="5" as="geometry" />
        </mxCell>
        <mxCell id="eCQYx24zuToegmJU3gOi-105" value="" style="group" vertex="1" connectable="0" parent="eCQYx24zuToegmJU3gOi-104">
          <mxGeometry width="10" height="5" as="geometry" />
        </mxCell>
        <mxCell id="eCQYx24zuToegmJU3gOi-106" value="" style="verticalLabelPosition=bottom;verticalAlign=top;html=1;shape=mxgraph.basic.patternFillRect;fillStyle=grid;step=5;fillStrokeWidth=0.2;fillStrokeColor=#dddddd;fillColor=#FFD966;" vertex="1" parent="eCQYx24zuToegmJU3gOi-105">
          <mxGeometry x="5" width="5" height="5" as="geometry" />
        </mxCell>
        <mxCell id="eCQYx24zuToegmJU3gOi-107" value="" style="verticalLabelPosition=bottom;verticalAlign=top;html=1;shape=mxgraph.basic.patternFillRect;fillStyle=grid;step=5;fillStrokeWidth=0.2;fillStrokeColor=#dddddd;fillColor=#0000FF;" vertex="1" parent="eCQYx24zuToegmJU3gOi-105">
          <mxGeometry width="5" height="5" as="geometry" />
        </mxCell>
        <mxCell id="eCQYx24zuToegmJU3gOi-108" value="" style="group" vertex="1" connectable="0" parent="eCQYx24zuToegmJU3gOi-103">
          <mxGeometry x="10" width="10" height="5" as="geometry" />
        </mxCell>
        <mxCell id="eCQYx24zuToegmJU3gOi-109" value="" style="verticalLabelPosition=bottom;verticalAlign=top;html=1;shape=mxgraph.basic.patternFillRect;fillStyle=grid;step=5;fillStrokeWidth=0.2;fillStrokeColor=#dddddd;fillColor=#FFD966;" vertex="1" parent="eCQYx24zuToegmJU3gOi-108">
          <mxGeometry x="5" width="5" height="5" as="geometry" />
        </mxCell>
        <mxCell id="eCQYx24zuToegmJU3gOi-110" value="" style="verticalLabelPosition=bottom;verticalAlign=top;html=1;shape=mxgraph.basic.patternFillRect;fillStyle=grid;step=5;fillStrokeWidth=0.2;fillStrokeColor=#dddddd;fillColor=#0000FF;" vertex="1" parent="eCQYx24zuToegmJU3gOi-108">
          <mxGeometry width="5" height="5" as="geometry" />
        </mxCell>
        <mxCell id="eCQYx24zuToegmJU3gOi-111" value="" style="group" vertex="1" connectable="0" parent="eCQYx24zuToegmJU3gOi-101">
          <mxGeometry x="20" width="20" height="5" as="geometry" />
        </mxCell>
        <mxCell id="eCQYx24zuToegmJU3gOi-112" value="" style="group" vertex="1" connectable="0" parent="eCQYx24zuToegmJU3gOi-111">
          <mxGeometry width="10" height="5" as="geometry" />
        </mxCell>
        <mxCell id="eCQYx24zuToegmJU3gOi-113" value="" style="group" vertex="1" connectable="0" parent="eCQYx24zuToegmJU3gOi-112">
          <mxGeometry width="10" height="5" as="geometry" />
        </mxCell>
        <mxCell id="eCQYx24zuToegmJU3gOi-114" value="" style="verticalLabelPosition=bottom;verticalAlign=top;html=1;shape=mxgraph.basic.patternFillRect;fillStyle=grid;step=5;fillStrokeWidth=0.2;fillStrokeColor=#dddddd;fillColor=#FFD966;" vertex="1" parent="eCQYx24zuToegmJU3gOi-113">
          <mxGeometry x="5" width="5" height="5" as="geometry" />
        </mxCell>
        <mxCell id="eCQYx24zuToegmJU3gOi-115" value="" style="verticalLabelPosition=bottom;verticalAlign=top;html=1;shape=mxgraph.basic.patternFillRect;fillStyle=grid;step=5;fillStrokeWidth=0.2;fillStrokeColor=#dddddd;fillColor=#0000FF;" vertex="1" parent="eCQYx24zuToegmJU3gOi-113">
          <mxGeometry width="5" height="5" as="geometry" />
        </mxCell>
        <mxCell id="eCQYx24zuToegmJU3gOi-116" value="" style="group" vertex="1" connectable="0" parent="eCQYx24zuToegmJU3gOi-111">
          <mxGeometry x="10" width="10" height="5" as="geometry" />
        </mxCell>
        <mxCell id="eCQYx24zuToegmJU3gOi-117" value="" style="verticalLabelPosition=bottom;verticalAlign=top;html=1;shape=mxgraph.basic.patternFillRect;fillStyle=grid;step=5;fillStrokeWidth=0.2;fillStrokeColor=#dddddd;fillColor=#FFD966;" vertex="1" parent="eCQYx24zuToegmJU3gOi-116">
          <mxGeometry x="5" width="5" height="5" as="geometry" />
        </mxCell>
        <mxCell id="eCQYx24zuToegmJU3gOi-118" value="" style="verticalLabelPosition=bottom;verticalAlign=top;html=1;shape=mxgraph.basic.patternFillRect;fillStyle=grid;step=5;fillStrokeWidth=0.2;fillStrokeColor=#dddddd;fillColor=#0000FF;" vertex="1" parent="eCQYx24zuToegmJU3gOi-116">
          <mxGeometry width="5" height="5" as="geometry" />
        </mxCell>
        <mxCell id="eCQYx24zuToegmJU3gOi-119" value="" style="group" vertex="1" connectable="0" parent="eCQYx24zuToegmJU3gOi-96">
          <mxGeometry x="10" width="10" height="5" as="geometry" />
        </mxCell>
        <mxCell id="eCQYx24zuToegmJU3gOi-120" value="" style="verticalLabelPosition=bottom;verticalAlign=top;html=1;shape=mxgraph.basic.patternFillRect;fillStyle=grid;step=5;fillStrokeWidth=0.2;fillStrokeColor=#dddddd;fillColor=#FFD966;" vertex="1" parent="eCQYx24zuToegmJU3gOi-119">
          <mxGeometry width="5" height="5" as="geometry" />
        </mxCell>
        <mxCell id="eCQYx24zuToegmJU3gOi-121" value="" style="verticalLabelPosition=bottom;verticalAlign=top;html=1;shape=mxgraph.basic.patternFillRect;fillStyle=grid;step=5;fillStrokeWidth=0.2;fillStrokeColor=#dddddd;fillColor=#0000FF;" vertex="1" parent="eCQYx24zuToegmJU3gOi-119">
          <mxGeometry x="5" width="5" height="5" as="geometry" />
        </mxCell>
        <mxCell id="eCQYx24zuToegmJU3gOi-122" value="" style="group" vertex="1" connectable="0" parent="eCQYx24zuToegmJU3gOi-94">
          <mxGeometry x="20" width="20" height="5" as="geometry" />
        </mxCell>
        <mxCell id="eCQYx24zuToegmJU3gOi-123" value="" style="group" vertex="1" connectable="0" parent="eCQYx24zuToegmJU3gOi-122">
          <mxGeometry width="10" height="5" as="geometry" />
        </mxCell>
        <mxCell id="eCQYx24zuToegmJU3gOi-124" value="" style="group" vertex="1" connectable="0" parent="eCQYx24zuToegmJU3gOi-123">
          <mxGeometry width="10" height="5" as="geometry" />
        </mxCell>
        <mxCell id="eCQYx24zuToegmJU3gOi-125" value="" style="verticalLabelPosition=bottom;verticalAlign=top;html=1;shape=mxgraph.basic.patternFillRect;fillStyle=grid;step=5;fillStrokeWidth=0.2;fillStrokeColor=#dddddd;fillColor=#FFD966;" vertex="1" parent="eCQYx24zuToegmJU3gOi-124">
          <mxGeometry width="5" height="5" as="geometry" />
        </mxCell>
        <mxCell id="eCQYx24zuToegmJU3gOi-126" value="" style="verticalLabelPosition=bottom;verticalAlign=top;html=1;shape=mxgraph.basic.patternFillRect;fillStyle=grid;step=5;fillStrokeWidth=0.2;fillStrokeColor=#dddddd;fillColor=#0000FF;" vertex="1" parent="eCQYx24zuToegmJU3gOi-124">
          <mxGeometry x="5" width="5" height="5" as="geometry" />
        </mxCell>
        <mxCell id="eCQYx24zuToegmJU3gOi-127" value="" style="group" vertex="1" connectable="0" parent="eCQYx24zuToegmJU3gOi-122">
          <mxGeometry x="10" width="10" height="5" as="geometry" />
        </mxCell>
        <mxCell id="eCQYx24zuToegmJU3gOi-128" value="" style="verticalLabelPosition=bottom;verticalAlign=top;html=1;shape=mxgraph.basic.patternFillRect;fillStyle=grid;step=5;fillStrokeWidth=0.2;fillStrokeColor=#dddddd;fillColor=#FFD966;" vertex="1" parent="eCQYx24zuToegmJU3gOi-127">
          <mxGeometry width="5" height="5" as="geometry" />
        </mxCell>
        <mxCell id="eCQYx24zuToegmJU3gOi-129" value="" style="verticalLabelPosition=bottom;verticalAlign=top;html=1;shape=mxgraph.basic.patternFillRect;fillStyle=grid;step=5;fillStrokeWidth=0.2;fillStrokeColor=#dddddd;fillColor=#0000FF;" vertex="1" parent="eCQYx24zuToegmJU3gOi-127">
          <mxGeometry x="5" width="5" height="5" as="geometry" />
        </mxCell>
        <mxCell id="eCQYx24zuToegmJU3gOi-43" value="" style="group" vertex="1" connectable="0" parent="eCQYx24zuToegmJU3gOi-38">
          <mxGeometry x="10" width="10" height="5" as="geometry" />
        </mxCell>
        <mxCell id="eCQYx24zuToegmJU3gOi-44" value="" style="verticalLabelPosition=bottom;verticalAlign=top;html=1;shape=mxgraph.basic.patternFillRect;fillStyle=grid;step=5;fillStrokeWidth=0.2;fillStrokeColor=#dddddd;fillColor=#FFD966;" vertex="1" parent="eCQYx24zuToegmJU3gOi-43">
          <mxGeometry x="5" width="5" height="5" as="geometry" />
        </mxCell>
        <mxCell id="eCQYx24zuToegmJU3gOi-45" value="" style="verticalLabelPosition=bottom;verticalAlign=top;html=1;shape=mxgraph.basic.patternFillRect;fillStyle=grid;step=5;fillStrokeWidth=0.2;fillStrokeColor=#dddddd;fillColor=#0000FF;" vertex="1" parent="eCQYx24zuToegmJU3gOi-43">
          <mxGeometry width="5" height="5" as="geometry" />
        </mxCell>
        <mxCell id="eCQYx24zuToegmJU3gOi-46" value="" style="group" vertex="1" connectable="0" parent="eCQYx24zuToegmJU3gOi-36">
          <mxGeometry x="20" width="20" height="5" as="geometry" />
        </mxCell>
        <mxCell id="eCQYx24zuToegmJU3gOi-47" value="" style="group" vertex="1" connectable="0" parent="eCQYx24zuToegmJU3gOi-46">
          <mxGeometry width="10" height="5" as="geometry" />
        </mxCell>
        <mxCell id="eCQYx24zuToegmJU3gOi-48" value="" style="group" vertex="1" connectable="0" parent="eCQYx24zuToegmJU3gOi-47">
          <mxGeometry width="10" height="5" as="geometry" />
        </mxCell>
        <mxCell id="eCQYx24zuToegmJU3gOi-49" value="" style="verticalLabelPosition=bottom;verticalAlign=top;html=1;shape=mxgraph.basic.patternFillRect;fillStyle=grid;step=5;fillStrokeWidth=0.2;fillStrokeColor=#dddddd;fillColor=#FFD966;" vertex="1" parent="eCQYx24zuToegmJU3gOi-48">
          <mxGeometry x="5" width="5" height="5" as="geometry" />
        </mxCell>
        <mxCell id="eCQYx24zuToegmJU3gOi-50" value="" style="verticalLabelPosition=bottom;verticalAlign=top;html=1;shape=mxgraph.basic.patternFillRect;fillStyle=grid;step=5;fillStrokeWidth=0.2;fillStrokeColor=#dddddd;fillColor=#0000FF;" vertex="1" parent="eCQYx24zuToegmJU3gOi-48">
          <mxGeometry width="5" height="5" as="geometry" />
        </mxCell>
        <mxCell id="eCQYx24zuToegmJU3gOi-51" value="" style="group" vertex="1" connectable="0" parent="eCQYx24zuToegmJU3gOi-46">
          <mxGeometry x="10" width="10" height="5" as="geometry" />
        </mxCell>
        <mxCell id="eCQYx24zuToegmJU3gOi-52" value="" style="verticalLabelPosition=bottom;verticalAlign=top;html=1;shape=mxgraph.basic.patternFillRect;fillStyle=grid;step=5;fillStrokeWidth=0.2;fillStrokeColor=#dddddd;fillColor=#FFD966;" vertex="1" parent="eCQYx24zuToegmJU3gOi-51">
          <mxGeometry x="5" width="5" height="5" as="geometry" />
        </mxCell>
        <mxCell id="eCQYx24zuToegmJU3gOi-53" value="" style="verticalLabelPosition=bottom;verticalAlign=top;html=1;shape=mxgraph.basic.patternFillRect;fillStyle=grid;step=5;fillStrokeWidth=0.2;fillStrokeColor=#dddddd;fillColor=#0000FF;" vertex="1" parent="eCQYx24zuToegmJU3gOi-51">
          <mxGeometry width="5" height="5" as="geometry" />
        </mxCell>
        <mxCell id="eCQYx24zuToegmJU3gOi-20" value="" style="group" vertex="1" connectable="0" parent="eCQYx24zuToegmJU3gOi-34">
          <mxGeometry x="10" width="10" height="5" as="geometry" />
        </mxCell>
        <mxCell id="eCQYx24zuToegmJU3gOi-21" value="" style="verticalLabelPosition=bottom;verticalAlign=top;html=1;shape=mxgraph.basic.patternFillRect;fillStyle=grid;step=5;fillStrokeWidth=0.2;fillStrokeColor=#dddddd;fillColor=#FFD966;" vertex="1" parent="eCQYx24zuToegmJU3gOi-20">
          <mxGeometry width="5" height="5" as="geometry" />
        </mxCell>
        <mxCell id="eCQYx24zuToegmJU3gOi-22" value="" style="verticalLabelPosition=bottom;verticalAlign=top;html=1;shape=mxgraph.basic.patternFillRect;fillStyle=grid;step=5;fillStrokeWidth=0.2;fillStrokeColor=#dddddd;fillColor=#0000FF;" vertex="1" parent="eCQYx24zuToegmJU3gOi-20">
          <mxGeometry x="5" width="5" height="5" as="geometry" />
        </mxCell>
        <mxCell id="eCQYx24zuToegmJU3gOi-26" value="" style="group" vertex="1" connectable="0" parent="eCQYx24zuToegmJU3gOi-35">
          <mxGeometry x="20" width="20" height="5" as="geometry" />
        </mxCell>
        <mxCell id="eCQYx24zuToegmJU3gOi-27" value="" style="group" vertex="1" connectable="0" parent="eCQYx24zuToegmJU3gOi-26">
          <mxGeometry width="10" height="5" as="geometry" />
        </mxCell>
        <mxCell id="eCQYx24zuToegmJU3gOi-28" value="" style="group" vertex="1" connectable="0" parent="eCQYx24zuToegmJU3gOi-27">
          <mxGeometry width="10" height="5" as="geometry" />
        </mxCell>
        <mxCell id="eCQYx24zuToegmJU3gOi-29" value="" style="verticalLabelPosition=bottom;verticalAlign=top;html=1;shape=mxgraph.basic.patternFillRect;fillStyle=grid;step=5;fillStrokeWidth=0.2;fillStrokeColor=#dddddd;fillColor=#FFD966;" vertex="1" parent="eCQYx24zuToegmJU3gOi-28">
          <mxGeometry width="5" height="5" as="geometry" />
        </mxCell>
        <mxCell id="eCQYx24zuToegmJU3gOi-30" value="" style="verticalLabelPosition=bottom;verticalAlign=top;html=1;shape=mxgraph.basic.patternFillRect;fillStyle=grid;step=5;fillStrokeWidth=0.2;fillStrokeColor=#dddddd;fillColor=#0000FF;" vertex="1" parent="eCQYx24zuToegmJU3gOi-28">
          <mxGeometry x="5" width="5" height="5" as="geometry" />
        </mxCell>
        <mxCell id="eCQYx24zuToegmJU3gOi-31" value="" style="group" vertex="1" connectable="0" parent="eCQYx24zuToegmJU3gOi-26">
          <mxGeometry x="10" width="10" height="5" as="geometry" />
        </mxCell>
        <mxCell id="eCQYx24zuToegmJU3gOi-32" value="" style="verticalLabelPosition=bottom;verticalAlign=top;html=1;shape=mxgraph.basic.patternFillRect;fillStyle=grid;step=5;fillStrokeWidth=0.2;fillStrokeColor=#dddddd;fillColor=#FFD966;" vertex="1" parent="eCQYx24zuToegmJU3gOi-31">
          <mxGeometry width="5" height="5" as="geometry" />
        </mxCell>
        <mxCell id="eCQYx24zuToegmJU3gOi-33" value="" style="verticalLabelPosition=bottom;verticalAlign=top;html=1;shape=mxgraph.basic.patternFillRect;fillStyle=grid;step=5;fillStrokeWidth=0.2;fillStrokeColor=#dddddd;fillColor=#0000FF;" vertex="1" parent="eCQYx24zuToegmJU3gOi-31">
          <mxGeometry x="5" width="5" height="5" as="geometry" />
        </mxCell>
        <mxCell id="eCQYx24zuToegmJU3gOi-131" value="" style="group" vertex="1" connectable="0" parent="eCQYx24zuToegmJU3gOi-316">
          <mxGeometry y="20" width="40" height="20" as="geometry" />
        </mxCell>
        <mxCell id="eCQYx24zuToegmJU3gOi-132" value="" style="group" vertex="1" connectable="0" parent="eCQYx24zuToegmJU3gOi-131">
          <mxGeometry width="40" height="20" as="geometry" />
        </mxCell>
        <mxCell id="eCQYx24zuToegmJU3gOi-133" value="" style="group" vertex="1" connectable="0" parent="eCQYx24zuToegmJU3gOi-132">
          <mxGeometry width="40" height="20" as="geometry" />
        </mxCell>
        <mxCell id="eCQYx24zuToegmJU3gOi-134" value="" style="group" vertex="1" connectable="0" parent="eCQYx24zuToegmJU3gOi-133">
          <mxGeometry width="40" height="20" as="geometry" />
        </mxCell>
        <mxCell id="eCQYx24zuToegmJU3gOi-135" value="" style="group" vertex="1" connectable="0" parent="eCQYx24zuToegmJU3gOi-134">
          <mxGeometry width="40" height="20" as="geometry" />
        </mxCell>
        <mxCell id="eCQYx24zuToegmJU3gOi-136" value="" style="verticalLabelPosition=bottom;verticalAlign=top;html=1;shape=mxgraph.basic.patternFillRect;fillStyle=grid;step=5;fillStrokeWidth=0.2;fillStrokeColor=#dddddd;fillColor=#FFD966;" vertex="1" parent="eCQYx24zuToegmJU3gOi-135">
          <mxGeometry width="5" height="5" as="geometry" />
        </mxCell>
        <mxCell id="eCQYx24zuToegmJU3gOi-137" value="" style="verticalLabelPosition=bottom;verticalAlign=top;html=1;shape=mxgraph.basic.patternFillRect;fillStyle=grid;step=5;fillStrokeWidth=0.2;fillStrokeColor=#dddddd;fillColor=#0000FF;" vertex="1" parent="eCQYx24zuToegmJU3gOi-135">
          <mxGeometry x="5" width="5" height="5" as="geometry" />
        </mxCell>
        <mxCell id="eCQYx24zuToegmJU3gOi-138" value="" style="group" vertex="1" connectable="0" parent="eCQYx24zuToegmJU3gOi-135">
          <mxGeometry y="5" width="40" height="15" as="geometry" />
        </mxCell>
        <mxCell id="eCQYx24zuToegmJU3gOi-139" value="" style="group" vertex="1" connectable="0" parent="eCQYx24zuToegmJU3gOi-138">
          <mxGeometry width="40" height="15" as="geometry" />
        </mxCell>
        <mxCell id="eCQYx24zuToegmJU3gOi-140" value="" style="group" vertex="1" connectable="0" parent="eCQYx24zuToegmJU3gOi-139">
          <mxGeometry width="40" height="15" as="geometry" />
        </mxCell>
        <mxCell id="eCQYx24zuToegmJU3gOi-141" value="" style="group" vertex="1" connectable="0" parent="eCQYx24zuToegmJU3gOi-140">
          <mxGeometry width="40" height="15" as="geometry" />
        </mxCell>
        <mxCell id="eCQYx24zuToegmJU3gOi-142" value="" style="group" vertex="1" connectable="0" parent="eCQYx24zuToegmJU3gOi-141">
          <mxGeometry width="40" height="15" as="geometry" />
        </mxCell>
        <mxCell id="eCQYx24zuToegmJU3gOi-143" value="" style="verticalLabelPosition=bottom;verticalAlign=top;html=1;shape=mxgraph.basic.patternFillRect;fillStyle=grid;step=5;fillStrokeWidth=0.2;fillStrokeColor=#dddddd;fillColor=#FFD966;" vertex="1" parent="eCQYx24zuToegmJU3gOi-142">
          <mxGeometry x="5" width="5" height="5" as="geometry" />
        </mxCell>
        <mxCell id="eCQYx24zuToegmJU3gOi-144" value="" style="verticalLabelPosition=bottom;verticalAlign=top;html=1;shape=mxgraph.basic.patternFillRect;fillStyle=grid;step=5;fillStrokeWidth=0.2;fillStrokeColor=#dddddd;fillColor=#0000FF;" vertex="1" parent="eCQYx24zuToegmJU3gOi-142">
          <mxGeometry width="5" height="5" as="geometry" />
        </mxCell>
        <mxCell id="eCQYx24zuToegmJU3gOi-145" value="" style="group" vertex="1" connectable="0" parent="eCQYx24zuToegmJU3gOi-142">
          <mxGeometry y="5" width="40" height="10" as="geometry" />
        </mxCell>
        <mxCell id="eCQYx24zuToegmJU3gOi-146" value="" style="group" vertex="1" connectable="0" parent="eCQYx24zuToegmJU3gOi-145">
          <mxGeometry width="40" height="10" as="geometry" />
        </mxCell>
        <mxCell id="eCQYx24zuToegmJU3gOi-147" value="" style="group" vertex="1" connectable="0" parent="eCQYx24zuToegmJU3gOi-146">
          <mxGeometry width="40" height="10" as="geometry" />
        </mxCell>
        <mxCell id="eCQYx24zuToegmJU3gOi-148" value="" style="group" vertex="1" connectable="0" parent="eCQYx24zuToegmJU3gOi-147">
          <mxGeometry width="40" height="10" as="geometry" />
        </mxCell>
        <mxCell id="eCQYx24zuToegmJU3gOi-149" value="" style="group" vertex="1" connectable="0" parent="eCQYx24zuToegmJU3gOi-148">
          <mxGeometry width="40" height="10" as="geometry" />
        </mxCell>
        <mxCell id="eCQYx24zuToegmJU3gOi-150" value="" style="verticalLabelPosition=bottom;verticalAlign=top;html=1;shape=mxgraph.basic.patternFillRect;fillStyle=grid;step=5;fillStrokeWidth=0.2;fillStrokeColor=#dddddd;fillColor=#FFD966;" vertex="1" parent="eCQYx24zuToegmJU3gOi-149">
          <mxGeometry width="5" height="5" as="geometry" />
        </mxCell>
        <mxCell id="eCQYx24zuToegmJU3gOi-151" value="" style="verticalLabelPosition=bottom;verticalAlign=top;html=1;shape=mxgraph.basic.patternFillRect;fillStyle=grid;step=5;fillStrokeWidth=0.2;fillStrokeColor=#dddddd;fillColor=#0000FF;" vertex="1" parent="eCQYx24zuToegmJU3gOi-149">
          <mxGeometry x="5" width="5" height="5" as="geometry" />
        </mxCell>
        <mxCell id="eCQYx24zuToegmJU3gOi-152" value="" style="group" vertex="1" connectable="0" parent="eCQYx24zuToegmJU3gOi-149">
          <mxGeometry y="5" width="40" height="5" as="geometry" />
        </mxCell>
        <mxCell id="eCQYx24zuToegmJU3gOi-153" value="" style="group" vertex="1" connectable="0" parent="eCQYx24zuToegmJU3gOi-152">
          <mxGeometry width="20" height="5" as="geometry" />
        </mxCell>
        <mxCell id="eCQYx24zuToegmJU3gOi-154" value="" style="group" vertex="1" connectable="0" parent="eCQYx24zuToegmJU3gOi-153">
          <mxGeometry width="20" height="5" as="geometry" />
        </mxCell>
        <mxCell id="eCQYx24zuToegmJU3gOi-155" value="" style="group" vertex="1" connectable="0" parent="eCQYx24zuToegmJU3gOi-154">
          <mxGeometry width="10" height="5" as="geometry" />
        </mxCell>
        <mxCell id="eCQYx24zuToegmJU3gOi-156" value="" style="group" vertex="1" connectable="0" parent="eCQYx24zuToegmJU3gOi-155">
          <mxGeometry width="10" height="5" as="geometry" />
        </mxCell>
        <mxCell id="eCQYx24zuToegmJU3gOi-157" value="" style="verticalLabelPosition=bottom;verticalAlign=top;html=1;shape=mxgraph.basic.patternFillRect;fillStyle=grid;step=5;fillStrokeWidth=0.2;fillStrokeColor=#dddddd;fillColor=#FFD966;" vertex="1" parent="eCQYx24zuToegmJU3gOi-156">
          <mxGeometry x="5" width="5" height="5" as="geometry" />
        </mxCell>
        <mxCell id="eCQYx24zuToegmJU3gOi-158" value="" style="verticalLabelPosition=bottom;verticalAlign=top;html=1;shape=mxgraph.basic.patternFillRect;fillStyle=grid;step=5;fillStrokeWidth=0.2;fillStrokeColor=#dddddd;fillColor=#0000FF;" vertex="1" parent="eCQYx24zuToegmJU3gOi-156">
          <mxGeometry width="5" height="5" as="geometry" />
        </mxCell>
        <mxCell id="eCQYx24zuToegmJU3gOi-159" value="" style="group" vertex="1" connectable="0" parent="eCQYx24zuToegmJU3gOi-154">
          <mxGeometry x="10" width="10" height="5" as="geometry" />
        </mxCell>
        <mxCell id="eCQYx24zuToegmJU3gOi-160" value="" style="verticalLabelPosition=bottom;verticalAlign=top;html=1;shape=mxgraph.basic.patternFillRect;fillStyle=grid;step=5;fillStrokeWidth=0.2;fillStrokeColor=#dddddd;fillColor=#FFD966;" vertex="1" parent="eCQYx24zuToegmJU3gOi-159">
          <mxGeometry x="5" width="5" height="5" as="geometry" />
        </mxCell>
        <mxCell id="eCQYx24zuToegmJU3gOi-161" value="" style="verticalLabelPosition=bottom;verticalAlign=top;html=1;shape=mxgraph.basic.patternFillRect;fillStyle=grid;step=5;fillStrokeWidth=0.2;fillStrokeColor=#dddddd;fillColor=#0000FF;" vertex="1" parent="eCQYx24zuToegmJU3gOi-159">
          <mxGeometry width="5" height="5" as="geometry" />
        </mxCell>
        <mxCell id="eCQYx24zuToegmJU3gOi-162" value="" style="group" vertex="1" connectable="0" parent="eCQYx24zuToegmJU3gOi-152">
          <mxGeometry x="20" width="20" height="5" as="geometry" />
        </mxCell>
        <mxCell id="eCQYx24zuToegmJU3gOi-163" value="" style="group" vertex="1" connectable="0" parent="eCQYx24zuToegmJU3gOi-162">
          <mxGeometry width="10" height="5" as="geometry" />
        </mxCell>
        <mxCell id="eCQYx24zuToegmJU3gOi-164" value="" style="group" vertex="1" connectable="0" parent="eCQYx24zuToegmJU3gOi-163">
          <mxGeometry width="10" height="5" as="geometry" />
        </mxCell>
        <mxCell id="eCQYx24zuToegmJU3gOi-165" value="" style="verticalLabelPosition=bottom;verticalAlign=top;html=1;shape=mxgraph.basic.patternFillRect;fillStyle=grid;step=5;fillStrokeWidth=0.2;fillStrokeColor=#dddddd;fillColor=#FFD966;" vertex="1" parent="eCQYx24zuToegmJU3gOi-164">
          <mxGeometry x="5" width="5" height="5" as="geometry" />
        </mxCell>
        <mxCell id="eCQYx24zuToegmJU3gOi-166" value="" style="verticalLabelPosition=bottom;verticalAlign=top;html=1;shape=mxgraph.basic.patternFillRect;fillStyle=grid;step=5;fillStrokeWidth=0.2;fillStrokeColor=#dddddd;fillColor=#0000FF;" vertex="1" parent="eCQYx24zuToegmJU3gOi-164">
          <mxGeometry width="5" height="5" as="geometry" />
        </mxCell>
        <mxCell id="eCQYx24zuToegmJU3gOi-167" value="" style="group" vertex="1" connectable="0" parent="eCQYx24zuToegmJU3gOi-162">
          <mxGeometry x="10" width="10" height="5" as="geometry" />
        </mxCell>
        <mxCell id="eCQYx24zuToegmJU3gOi-168" value="" style="verticalLabelPosition=bottom;verticalAlign=top;html=1;shape=mxgraph.basic.patternFillRect;fillStyle=grid;step=5;fillStrokeWidth=0.2;fillStrokeColor=#dddddd;fillColor=#FFD966;" vertex="1" parent="eCQYx24zuToegmJU3gOi-167">
          <mxGeometry x="5" width="5" height="5" as="geometry" />
        </mxCell>
        <mxCell id="eCQYx24zuToegmJU3gOi-169" value="" style="verticalLabelPosition=bottom;verticalAlign=top;html=1;shape=mxgraph.basic.patternFillRect;fillStyle=grid;step=5;fillStrokeWidth=0.2;fillStrokeColor=#dddddd;fillColor=#0000FF;" vertex="1" parent="eCQYx24zuToegmJU3gOi-167">
          <mxGeometry width="5" height="5" as="geometry" />
        </mxCell>
        <mxCell id="eCQYx24zuToegmJU3gOi-170" value="" style="group" vertex="1" connectable="0" parent="eCQYx24zuToegmJU3gOi-147">
          <mxGeometry x="10" width="10" height="5" as="geometry" />
        </mxCell>
        <mxCell id="eCQYx24zuToegmJU3gOi-171" value="" style="verticalLabelPosition=bottom;verticalAlign=top;html=1;shape=mxgraph.basic.patternFillRect;fillStyle=grid;step=5;fillStrokeWidth=0.2;fillStrokeColor=#dddddd;fillColor=#FFD966;" vertex="1" parent="eCQYx24zuToegmJU3gOi-170">
          <mxGeometry width="5" height="5" as="geometry" />
        </mxCell>
        <mxCell id="eCQYx24zuToegmJU3gOi-172" value="" style="verticalLabelPosition=bottom;verticalAlign=top;html=1;shape=mxgraph.basic.patternFillRect;fillStyle=grid;step=5;fillStrokeWidth=0.2;fillStrokeColor=#dddddd;fillColor=#0000FF;" vertex="1" parent="eCQYx24zuToegmJU3gOi-170">
          <mxGeometry x="5" width="5" height="5" as="geometry" />
        </mxCell>
        <mxCell id="eCQYx24zuToegmJU3gOi-173" value="" style="group" vertex="1" connectable="0" parent="eCQYx24zuToegmJU3gOi-145">
          <mxGeometry x="20" width="20" height="5" as="geometry" />
        </mxCell>
        <mxCell id="eCQYx24zuToegmJU3gOi-174" value="" style="group" vertex="1" connectable="0" parent="eCQYx24zuToegmJU3gOi-173">
          <mxGeometry width="10" height="5" as="geometry" />
        </mxCell>
        <mxCell id="eCQYx24zuToegmJU3gOi-175" value="" style="group" vertex="1" connectable="0" parent="eCQYx24zuToegmJU3gOi-174">
          <mxGeometry width="10" height="5" as="geometry" />
        </mxCell>
        <mxCell id="eCQYx24zuToegmJU3gOi-176" value="" style="verticalLabelPosition=bottom;verticalAlign=top;html=1;shape=mxgraph.basic.patternFillRect;fillStyle=grid;step=5;fillStrokeWidth=0.2;fillStrokeColor=#dddddd;fillColor=#FFD966;" vertex="1" parent="eCQYx24zuToegmJU3gOi-175">
          <mxGeometry width="5" height="5" as="geometry" />
        </mxCell>
        <mxCell id="eCQYx24zuToegmJU3gOi-177" value="" style="verticalLabelPosition=bottom;verticalAlign=top;html=1;shape=mxgraph.basic.patternFillRect;fillStyle=grid;step=5;fillStrokeWidth=0.2;fillStrokeColor=#dddddd;fillColor=#0000FF;" vertex="1" parent="eCQYx24zuToegmJU3gOi-175">
          <mxGeometry x="5" width="5" height="5" as="geometry" />
        </mxCell>
        <mxCell id="eCQYx24zuToegmJU3gOi-178" value="" style="group" vertex="1" connectable="0" parent="eCQYx24zuToegmJU3gOi-173">
          <mxGeometry x="10" width="10" height="5" as="geometry" />
        </mxCell>
        <mxCell id="eCQYx24zuToegmJU3gOi-179" value="" style="verticalLabelPosition=bottom;verticalAlign=top;html=1;shape=mxgraph.basic.patternFillRect;fillStyle=grid;step=5;fillStrokeWidth=0.2;fillStrokeColor=#dddddd;fillColor=#FFD966;" vertex="1" parent="eCQYx24zuToegmJU3gOi-178">
          <mxGeometry width="5" height="5" as="geometry" />
        </mxCell>
        <mxCell id="eCQYx24zuToegmJU3gOi-180" value="" style="verticalLabelPosition=bottom;verticalAlign=top;html=1;shape=mxgraph.basic.patternFillRect;fillStyle=grid;step=5;fillStrokeWidth=0.2;fillStrokeColor=#dddddd;fillColor=#0000FF;" vertex="1" parent="eCQYx24zuToegmJU3gOi-178">
          <mxGeometry x="5" width="5" height="5" as="geometry" />
        </mxCell>
        <mxCell id="eCQYx24zuToegmJU3gOi-181" value="" style="group" vertex="1" connectable="0" parent="eCQYx24zuToegmJU3gOi-140">
          <mxGeometry x="10" width="10" height="5" as="geometry" />
        </mxCell>
        <mxCell id="eCQYx24zuToegmJU3gOi-182" value="" style="verticalLabelPosition=bottom;verticalAlign=top;html=1;shape=mxgraph.basic.patternFillRect;fillStyle=grid;step=5;fillStrokeWidth=0.2;fillStrokeColor=#dddddd;fillColor=#FFD966;" vertex="1" parent="eCQYx24zuToegmJU3gOi-181">
          <mxGeometry x="5" width="5" height="5" as="geometry" />
        </mxCell>
        <mxCell id="eCQYx24zuToegmJU3gOi-183" value="" style="verticalLabelPosition=bottom;verticalAlign=top;html=1;shape=mxgraph.basic.patternFillRect;fillStyle=grid;step=5;fillStrokeWidth=0.2;fillStrokeColor=#dddddd;fillColor=#0000FF;" vertex="1" parent="eCQYx24zuToegmJU3gOi-181">
          <mxGeometry width="5" height="5" as="geometry" />
        </mxCell>
        <mxCell id="eCQYx24zuToegmJU3gOi-184" value="" style="group" vertex="1" connectable="0" parent="eCQYx24zuToegmJU3gOi-138">
          <mxGeometry x="20" width="20" height="5" as="geometry" />
        </mxCell>
        <mxCell id="eCQYx24zuToegmJU3gOi-185" value="" style="group" vertex="1" connectable="0" parent="eCQYx24zuToegmJU3gOi-184">
          <mxGeometry width="10" height="5" as="geometry" />
        </mxCell>
        <mxCell id="eCQYx24zuToegmJU3gOi-186" value="" style="group" vertex="1" connectable="0" parent="eCQYx24zuToegmJU3gOi-185">
          <mxGeometry width="10" height="5" as="geometry" />
        </mxCell>
        <mxCell id="eCQYx24zuToegmJU3gOi-187" value="" style="verticalLabelPosition=bottom;verticalAlign=top;html=1;shape=mxgraph.basic.patternFillRect;fillStyle=grid;step=5;fillStrokeWidth=0.2;fillStrokeColor=#dddddd;fillColor=#FFD966;" vertex="1" parent="eCQYx24zuToegmJU3gOi-186">
          <mxGeometry x="5" width="5" height="5" as="geometry" />
        </mxCell>
        <mxCell id="eCQYx24zuToegmJU3gOi-188" value="" style="verticalLabelPosition=bottom;verticalAlign=top;html=1;shape=mxgraph.basic.patternFillRect;fillStyle=grid;step=5;fillStrokeWidth=0.2;fillStrokeColor=#dddddd;fillColor=#0000FF;" vertex="1" parent="eCQYx24zuToegmJU3gOi-186">
          <mxGeometry width="5" height="5" as="geometry" />
        </mxCell>
        <mxCell id="eCQYx24zuToegmJU3gOi-189" value="" style="group" vertex="1" connectable="0" parent="eCQYx24zuToegmJU3gOi-184">
          <mxGeometry x="10" width="10" height="5" as="geometry" />
        </mxCell>
        <mxCell id="eCQYx24zuToegmJU3gOi-190" value="" style="verticalLabelPosition=bottom;verticalAlign=top;html=1;shape=mxgraph.basic.patternFillRect;fillStyle=grid;step=5;fillStrokeWidth=0.2;fillStrokeColor=#dddddd;fillColor=#FFD966;" vertex="1" parent="eCQYx24zuToegmJU3gOi-189">
          <mxGeometry x="5" width="5" height="5" as="geometry" />
        </mxCell>
        <mxCell id="eCQYx24zuToegmJU3gOi-191" value="" style="verticalLabelPosition=bottom;verticalAlign=top;html=1;shape=mxgraph.basic.patternFillRect;fillStyle=grid;step=5;fillStrokeWidth=0.2;fillStrokeColor=#dddddd;fillColor=#0000FF;" vertex="1" parent="eCQYx24zuToegmJU3gOi-189">
          <mxGeometry width="5" height="5" as="geometry" />
        </mxCell>
        <mxCell id="eCQYx24zuToegmJU3gOi-192" value="" style="group" vertex="1" connectable="0" parent="eCQYx24zuToegmJU3gOi-133">
          <mxGeometry x="10" width="10" height="5" as="geometry" />
        </mxCell>
        <mxCell id="eCQYx24zuToegmJU3gOi-193" value="" style="verticalLabelPosition=bottom;verticalAlign=top;html=1;shape=mxgraph.basic.patternFillRect;fillStyle=grid;step=5;fillStrokeWidth=0.2;fillStrokeColor=#dddddd;fillColor=#FFD966;" vertex="1" parent="eCQYx24zuToegmJU3gOi-192">
          <mxGeometry width="5" height="5" as="geometry" />
        </mxCell>
        <mxCell id="eCQYx24zuToegmJU3gOi-194" value="" style="verticalLabelPosition=bottom;verticalAlign=top;html=1;shape=mxgraph.basic.patternFillRect;fillStyle=grid;step=5;fillStrokeWidth=0.2;fillStrokeColor=#dddddd;fillColor=#0000FF;" vertex="1" parent="eCQYx24zuToegmJU3gOi-192">
          <mxGeometry x="5" width="5" height="5" as="geometry" />
        </mxCell>
        <mxCell id="eCQYx24zuToegmJU3gOi-195" value="" style="group" vertex="1" connectable="0" parent="eCQYx24zuToegmJU3gOi-131">
          <mxGeometry x="20" width="20" height="5" as="geometry" />
        </mxCell>
        <mxCell id="eCQYx24zuToegmJU3gOi-196" value="" style="group" vertex="1" connectable="0" parent="eCQYx24zuToegmJU3gOi-195">
          <mxGeometry width="10" height="5" as="geometry" />
        </mxCell>
        <mxCell id="eCQYx24zuToegmJU3gOi-197" value="" style="group" vertex="1" connectable="0" parent="eCQYx24zuToegmJU3gOi-196">
          <mxGeometry width="10" height="5" as="geometry" />
        </mxCell>
        <mxCell id="eCQYx24zuToegmJU3gOi-198" value="" style="verticalLabelPosition=bottom;verticalAlign=top;html=1;shape=mxgraph.basic.patternFillRect;fillStyle=grid;step=5;fillStrokeWidth=0.2;fillStrokeColor=#dddddd;fillColor=#FFD966;" vertex="1" parent="eCQYx24zuToegmJU3gOi-197">
          <mxGeometry width="5" height="5" as="geometry" />
        </mxCell>
        <mxCell id="eCQYx24zuToegmJU3gOi-199" value="" style="verticalLabelPosition=bottom;verticalAlign=top;html=1;shape=mxgraph.basic.patternFillRect;fillStyle=grid;step=5;fillStrokeWidth=0.2;fillStrokeColor=#dddddd;fillColor=#0000FF;" vertex="1" parent="eCQYx24zuToegmJU3gOi-197">
          <mxGeometry x="5" width="5" height="5" as="geometry" />
        </mxCell>
        <mxCell id="eCQYx24zuToegmJU3gOi-200" value="" style="group" vertex="1" connectable="0" parent="eCQYx24zuToegmJU3gOi-195">
          <mxGeometry x="10" width="10" height="5" as="geometry" />
        </mxCell>
        <mxCell id="eCQYx24zuToegmJU3gOi-201" value="" style="verticalLabelPosition=bottom;verticalAlign=top;html=1;shape=mxgraph.basic.patternFillRect;fillStyle=grid;step=5;fillStrokeWidth=0.2;fillStrokeColor=#dddddd;fillColor=#FFD966;" vertex="1" parent="eCQYx24zuToegmJU3gOi-200">
          <mxGeometry width="5" height="5" as="geometry" />
        </mxCell>
        <mxCell id="eCQYx24zuToegmJU3gOi-202" value="" style="verticalLabelPosition=bottom;verticalAlign=top;html=1;shape=mxgraph.basic.patternFillRect;fillStyle=grid;step=5;fillStrokeWidth=0.2;fillStrokeColor=#dddddd;fillColor=#0000FF;" vertex="1" parent="eCQYx24zuToegmJU3gOi-200">
          <mxGeometry x="5" width="5" height="5" as="geometry" />
        </mxCell>
        <mxCell id="eCQYx24zuToegmJU3gOi-318" value="" style="group" vertex="1" connectable="0" parent="1">
          <mxGeometry x="440" y="60" width="40" height="40" as="geometry" />
        </mxCell>
        <mxCell id="eCQYx24zuToegmJU3gOi-92" value="" style="group" vertex="1" connectable="0" parent="eCQYx24zuToegmJU3gOi-318">
          <mxGeometry width="40" height="10" as="geometry" />
        </mxCell>
        <mxCell id="eCQYx24zuToegmJU3gOi-55" value="" style="group" vertex="1" connectable="0" parent="eCQYx24zuToegmJU3gOi-92">
          <mxGeometry width="40" height="10" as="geometry" />
        </mxCell>
        <mxCell id="eCQYx24zuToegmJU3gOi-56" value="" style="group" vertex="1" connectable="0" parent="eCQYx24zuToegmJU3gOi-55">
          <mxGeometry width="40" height="10" as="geometry" />
        </mxCell>
        <mxCell id="eCQYx24zuToegmJU3gOi-57" value="" style="group" vertex="1" connectable="0" parent="eCQYx24zuToegmJU3gOi-56">
          <mxGeometry width="40" height="10" as="geometry" />
        </mxCell>
        <mxCell id="eCQYx24zuToegmJU3gOi-58" value="" style="group" vertex="1" connectable="0" parent="eCQYx24zuToegmJU3gOi-57">
          <mxGeometry width="40" height="10" as="geometry" />
        </mxCell>
        <mxCell id="eCQYx24zuToegmJU3gOi-90" value="" style="group" vertex="1" connectable="0" parent="eCQYx24zuToegmJU3gOi-58">
          <mxGeometry width="40" height="10" as="geometry" />
        </mxCell>
        <mxCell id="eCQYx24zuToegmJU3gOi-59" value="" style="verticalLabelPosition=bottom;verticalAlign=top;html=1;shape=mxgraph.basic.patternFillRect;fillStyle=grid;step=5;fillStrokeWidth=0.2;fillStrokeColor=#dddddd;fillColor=#FFD966;" vertex="1" parent="eCQYx24zuToegmJU3gOi-90">
          <mxGeometry x="5" width="5" height="5" as="geometry" />
        </mxCell>
        <mxCell id="eCQYx24zuToegmJU3gOi-60" value="" style="verticalLabelPosition=bottom;verticalAlign=top;html=1;shape=mxgraph.basic.patternFillRect;fillStyle=grid;step=5;fillStrokeWidth=0.2;fillStrokeColor=#dddddd;fillColor=#0000FF;" vertex="1" parent="eCQYx24zuToegmJU3gOi-90">
          <mxGeometry width="5" height="5" as="geometry" />
        </mxCell>
        <mxCell id="eCQYx24zuToegmJU3gOi-61" value="" style="group" vertex="1" connectable="0" parent="eCQYx24zuToegmJU3gOi-90">
          <mxGeometry y="5" width="40" height="5" as="geometry" />
        </mxCell>
        <mxCell id="eCQYx24zuToegmJU3gOi-62" value="" style="group" vertex="1" connectable="0" parent="eCQYx24zuToegmJU3gOi-61">
          <mxGeometry width="20" height="5" as="geometry" />
        </mxCell>
        <mxCell id="eCQYx24zuToegmJU3gOi-63" value="" style="group" vertex="1" connectable="0" parent="eCQYx24zuToegmJU3gOi-62">
          <mxGeometry width="20" height="5" as="geometry" />
        </mxCell>
        <mxCell id="eCQYx24zuToegmJU3gOi-64" value="" style="group" vertex="1" connectable="0" parent="eCQYx24zuToegmJU3gOi-63">
          <mxGeometry width="10" height="5" as="geometry" />
        </mxCell>
        <mxCell id="eCQYx24zuToegmJU3gOi-65" value="" style="group" vertex="1" connectable="0" parent="eCQYx24zuToegmJU3gOi-64">
          <mxGeometry width="10" height="5" as="geometry" />
        </mxCell>
        <mxCell id="eCQYx24zuToegmJU3gOi-66" value="" style="verticalLabelPosition=bottom;verticalAlign=top;html=1;shape=mxgraph.basic.patternFillRect;fillStyle=grid;step=5;fillStrokeWidth=0.2;fillStrokeColor=#dddddd;fillColor=#FFD966;" vertex="1" parent="eCQYx24zuToegmJU3gOi-65">
          <mxGeometry width="5" height="5" as="geometry" />
        </mxCell>
        <mxCell id="eCQYx24zuToegmJU3gOi-67" value="" style="verticalLabelPosition=bottom;verticalAlign=top;html=1;shape=mxgraph.basic.patternFillRect;fillStyle=grid;step=5;fillStrokeWidth=0.2;fillStrokeColor=#dddddd;fillColor=#0000FF;" vertex="1" parent="eCQYx24zuToegmJU3gOi-65">
          <mxGeometry x="5" width="5" height="5" as="geometry" />
        </mxCell>
        <mxCell id="eCQYx24zuToegmJU3gOi-68" value="" style="group" vertex="1" connectable="0" parent="eCQYx24zuToegmJU3gOi-63">
          <mxGeometry x="10" width="10" height="5" as="geometry" />
        </mxCell>
        <mxCell id="eCQYx24zuToegmJU3gOi-69" value="" style="verticalLabelPosition=bottom;verticalAlign=top;html=1;shape=mxgraph.basic.patternFillRect;fillStyle=grid;step=5;fillStrokeWidth=0.2;fillStrokeColor=#dddddd;fillColor=#FFD966;" vertex="1" parent="eCQYx24zuToegmJU3gOi-68">
          <mxGeometry width="5" height="5" as="geometry" />
        </mxCell>
        <mxCell id="eCQYx24zuToegmJU3gOi-70" value="" style="verticalLabelPosition=bottom;verticalAlign=top;html=1;shape=mxgraph.basic.patternFillRect;fillStyle=grid;step=5;fillStrokeWidth=0.2;fillStrokeColor=#dddddd;fillColor=#0000FF;" vertex="1" parent="eCQYx24zuToegmJU3gOi-68">
          <mxGeometry x="5" width="5" height="5" as="geometry" />
        </mxCell>
        <mxCell id="eCQYx24zuToegmJU3gOi-71" value="" style="group" vertex="1" connectable="0" parent="eCQYx24zuToegmJU3gOi-61">
          <mxGeometry x="20" width="20" height="5" as="geometry" />
        </mxCell>
        <mxCell id="eCQYx24zuToegmJU3gOi-72" value="" style="group" vertex="1" connectable="0" parent="eCQYx24zuToegmJU3gOi-71">
          <mxGeometry width="10" height="5" as="geometry" />
        </mxCell>
        <mxCell id="eCQYx24zuToegmJU3gOi-73" value="" style="group" vertex="1" connectable="0" parent="eCQYx24zuToegmJU3gOi-72">
          <mxGeometry width="10" height="5" as="geometry" />
        </mxCell>
        <mxCell id="eCQYx24zuToegmJU3gOi-74" value="" style="verticalLabelPosition=bottom;verticalAlign=top;html=1;shape=mxgraph.basic.patternFillRect;fillStyle=grid;step=5;fillStrokeWidth=0.2;fillStrokeColor=#dddddd;fillColor=#FFD966;" vertex="1" parent="eCQYx24zuToegmJU3gOi-73">
          <mxGeometry width="5" height="5" as="geometry" />
        </mxCell>
        <mxCell id="eCQYx24zuToegmJU3gOi-75" value="" style="verticalLabelPosition=bottom;verticalAlign=top;html=1;shape=mxgraph.basic.patternFillRect;fillStyle=grid;step=5;fillStrokeWidth=0.2;fillStrokeColor=#dddddd;fillColor=#0000FF;" vertex="1" parent="eCQYx24zuToegmJU3gOi-73">
          <mxGeometry x="5" width="5" height="5" as="geometry" />
        </mxCell>
        <mxCell id="eCQYx24zuToegmJU3gOi-76" value="" style="group" vertex="1" connectable="0" parent="eCQYx24zuToegmJU3gOi-71">
          <mxGeometry x="10" width="10" height="5" as="geometry" />
        </mxCell>
        <mxCell id="eCQYx24zuToegmJU3gOi-77" value="" style="verticalLabelPosition=bottom;verticalAlign=top;html=1;shape=mxgraph.basic.patternFillRect;fillStyle=grid;step=5;fillStrokeWidth=0.2;fillStrokeColor=#dddddd;fillColor=#FFD966;" vertex="1" parent="eCQYx24zuToegmJU3gOi-76">
          <mxGeometry width="5" height="5" as="geometry" />
        </mxCell>
        <mxCell id="eCQYx24zuToegmJU3gOi-78" value="" style="verticalLabelPosition=bottom;verticalAlign=top;html=1;shape=mxgraph.basic.patternFillRect;fillStyle=grid;step=5;fillStrokeWidth=0.2;fillStrokeColor=#dddddd;fillColor=#0000FF;" vertex="1" parent="eCQYx24zuToegmJU3gOi-76">
          <mxGeometry x="5" width="5" height="5" as="geometry" />
        </mxCell>
        <mxCell id="eCQYx24zuToegmJU3gOi-79" value="" style="group" vertex="1" connectable="0" parent="eCQYx24zuToegmJU3gOi-56">
          <mxGeometry x="10" width="10" height="5" as="geometry" />
        </mxCell>
        <mxCell id="eCQYx24zuToegmJU3gOi-80" value="" style="verticalLabelPosition=bottom;verticalAlign=top;html=1;shape=mxgraph.basic.patternFillRect;fillStyle=grid;step=5;fillStrokeWidth=0.2;fillStrokeColor=#dddddd;fillColor=#FFD966;" vertex="1" parent="eCQYx24zuToegmJU3gOi-79">
          <mxGeometry x="5" width="5" height="5" as="geometry" />
        </mxCell>
        <mxCell id="eCQYx24zuToegmJU3gOi-81" value="" style="verticalLabelPosition=bottom;verticalAlign=top;html=1;shape=mxgraph.basic.patternFillRect;fillStyle=grid;step=5;fillStrokeWidth=0.2;fillStrokeColor=#dddddd;fillColor=#0000FF;" vertex="1" parent="eCQYx24zuToegmJU3gOi-79">
          <mxGeometry width="5" height="5" as="geometry" />
        </mxCell>
        <mxCell id="eCQYx24zuToegmJU3gOi-82" value="" style="group" vertex="1" connectable="0" parent="eCQYx24zuToegmJU3gOi-92">
          <mxGeometry x="20" width="20" height="5" as="geometry" />
        </mxCell>
        <mxCell id="eCQYx24zuToegmJU3gOi-83" value="" style="group" vertex="1" connectable="0" parent="eCQYx24zuToegmJU3gOi-82">
          <mxGeometry width="10" height="5" as="geometry" />
        </mxCell>
        <mxCell id="eCQYx24zuToegmJU3gOi-84" value="" style="group" vertex="1" connectable="0" parent="eCQYx24zuToegmJU3gOi-83">
          <mxGeometry width="10" height="5" as="geometry" />
        </mxCell>
        <mxCell id="eCQYx24zuToegmJU3gOi-85" value="" style="verticalLabelPosition=bottom;verticalAlign=top;html=1;shape=mxgraph.basic.patternFillRect;fillStyle=grid;step=5;fillStrokeWidth=0.2;fillStrokeColor=#dddddd;fillColor=#FFD966;" vertex="1" parent="eCQYx24zuToegmJU3gOi-84">
          <mxGeometry x="5" width="5" height="5" as="geometry" />
        </mxCell>
        <mxCell id="eCQYx24zuToegmJU3gOi-86" value="" style="verticalLabelPosition=bottom;verticalAlign=top;html=1;shape=mxgraph.basic.patternFillRect;fillStyle=grid;step=5;fillStrokeWidth=0.2;fillStrokeColor=#dddddd;fillColor=#0000FF;" vertex="1" parent="eCQYx24zuToegmJU3gOi-84">
          <mxGeometry width="5" height="5" as="geometry" />
        </mxCell>
        <mxCell id="eCQYx24zuToegmJU3gOi-87" value="" style="group" vertex="1" connectable="0" parent="eCQYx24zuToegmJU3gOi-82">
          <mxGeometry x="10" width="10" height="5" as="geometry" />
        </mxCell>
        <mxCell id="eCQYx24zuToegmJU3gOi-88" value="" style="verticalLabelPosition=bottom;verticalAlign=top;html=1;shape=mxgraph.basic.patternFillRect;fillStyle=grid;step=5;fillStrokeWidth=0.2;fillStrokeColor=#dddddd;fillColor=#FFD966;" vertex="1" parent="eCQYx24zuToegmJU3gOi-87">
          <mxGeometry x="5" width="5" height="5" as="geometry" />
        </mxCell>
        <mxCell id="eCQYx24zuToegmJU3gOi-89" value="" style="verticalLabelPosition=bottom;verticalAlign=top;html=1;shape=mxgraph.basic.patternFillRect;fillStyle=grid;step=5;fillStrokeWidth=0.2;fillStrokeColor=#dddddd;fillColor=#0000FF;" vertex="1" parent="eCQYx24zuToegmJU3gOi-87">
          <mxGeometry width="5" height="5" as="geometry" />
        </mxCell>
        <mxCell id="eCQYx24zuToegmJU3gOi-203" value="" style="group" vertex="1" connectable="0" parent="eCQYx24zuToegmJU3gOi-318">
          <mxGeometry y="10" width="40" height="30" as="geometry" />
        </mxCell>
        <mxCell id="eCQYx24zuToegmJU3gOi-204" value="" style="group" vertex="1" connectable="0" parent="eCQYx24zuToegmJU3gOi-203">
          <mxGeometry width="40" height="30" as="geometry" />
        </mxCell>
        <mxCell id="eCQYx24zuToegmJU3gOi-205" value="" style="group" vertex="1" connectable="0" parent="eCQYx24zuToegmJU3gOi-204">
          <mxGeometry width="40" height="30" as="geometry" />
        </mxCell>
        <mxCell id="eCQYx24zuToegmJU3gOi-206" value="" style="group" vertex="1" connectable="0" parent="eCQYx24zuToegmJU3gOi-205">
          <mxGeometry width="40" height="30" as="geometry" />
        </mxCell>
        <mxCell id="eCQYx24zuToegmJU3gOi-207" value="" style="group" vertex="1" connectable="0" parent="eCQYx24zuToegmJU3gOi-206">
          <mxGeometry width="40" height="30" as="geometry" />
        </mxCell>
        <mxCell id="eCQYx24zuToegmJU3gOi-208" value="" style="group" vertex="1" connectable="0" parent="eCQYx24zuToegmJU3gOi-207">
          <mxGeometry width="40" height="30" as="geometry" />
        </mxCell>
        <mxCell id="eCQYx24zuToegmJU3gOi-209" value="" style="verticalLabelPosition=bottom;verticalAlign=top;html=1;shape=mxgraph.basic.patternFillRect;fillStyle=grid;step=5;fillStrokeWidth=0.2;fillStrokeColor=#dddddd;fillColor=#FFD966;" vertex="1" parent="eCQYx24zuToegmJU3gOi-208">
          <mxGeometry x="5" width="5" height="5" as="geometry" />
        </mxCell>
        <mxCell id="eCQYx24zuToegmJU3gOi-210" value="" style="verticalLabelPosition=bottom;verticalAlign=top;html=1;shape=mxgraph.basic.patternFillRect;fillStyle=grid;step=5;fillStrokeWidth=0.2;fillStrokeColor=#dddddd;fillColor=#0000FF;" vertex="1" parent="eCQYx24zuToegmJU3gOi-208">
          <mxGeometry width="5" height="5" as="geometry" />
        </mxCell>
        <mxCell id="eCQYx24zuToegmJU3gOi-211" value="" style="group" vertex="1" connectable="0" parent="eCQYx24zuToegmJU3gOi-208">
          <mxGeometry y="5" width="40" height="25" as="geometry" />
        </mxCell>
        <mxCell id="eCQYx24zuToegmJU3gOi-212" value="" style="group" vertex="1" connectable="0" parent="eCQYx24zuToegmJU3gOi-211">
          <mxGeometry width="40" height="25" as="geometry" />
        </mxCell>
        <mxCell id="eCQYx24zuToegmJU3gOi-213" value="" style="group" vertex="1" connectable="0" parent="eCQYx24zuToegmJU3gOi-212">
          <mxGeometry width="40" height="25" as="geometry" />
        </mxCell>
        <mxCell id="eCQYx24zuToegmJU3gOi-214" value="" style="group" vertex="1" connectable="0" parent="eCQYx24zuToegmJU3gOi-213">
          <mxGeometry width="40" height="25" as="geometry" />
        </mxCell>
        <mxCell id="eCQYx24zuToegmJU3gOi-215" value="" style="group" vertex="1" connectable="0" parent="eCQYx24zuToegmJU3gOi-214">
          <mxGeometry width="40" height="25" as="geometry" />
        </mxCell>
        <mxCell id="eCQYx24zuToegmJU3gOi-216" value="" style="verticalLabelPosition=bottom;verticalAlign=top;html=1;shape=mxgraph.basic.patternFillRect;fillStyle=grid;step=5;fillStrokeWidth=0.2;fillStrokeColor=#dddddd;fillColor=#FFD966;" vertex="1" parent="eCQYx24zuToegmJU3gOi-215">
          <mxGeometry width="5" height="5" as="geometry" />
        </mxCell>
        <mxCell id="eCQYx24zuToegmJU3gOi-217" value="" style="verticalLabelPosition=bottom;verticalAlign=top;html=1;shape=mxgraph.basic.patternFillRect;fillStyle=grid;step=5;fillStrokeWidth=0.2;fillStrokeColor=#dddddd;fillColor=#0000FF;" vertex="1" parent="eCQYx24zuToegmJU3gOi-215">
          <mxGeometry x="5" width="5" height="5" as="geometry" />
        </mxCell>
        <mxCell id="eCQYx24zuToegmJU3gOi-241" value="" style="group" vertex="1" connectable="0" parent="eCQYx24zuToegmJU3gOi-215">
          <mxGeometry y="5" width="40" height="10" as="geometry" />
        </mxCell>
        <mxCell id="eCQYx24zuToegmJU3gOi-242" value="" style="group" vertex="1" connectable="0" parent="eCQYx24zuToegmJU3gOi-241">
          <mxGeometry width="40" height="10" as="geometry" />
        </mxCell>
        <mxCell id="eCQYx24zuToegmJU3gOi-243" value="" style="group" vertex="1" connectable="0" parent="eCQYx24zuToegmJU3gOi-242">
          <mxGeometry width="40" height="10" as="geometry" />
        </mxCell>
        <mxCell id="eCQYx24zuToegmJU3gOi-244" value="" style="group" vertex="1" connectable="0" parent="eCQYx24zuToegmJU3gOi-243">
          <mxGeometry width="40" height="10" as="geometry" />
        </mxCell>
        <mxCell id="eCQYx24zuToegmJU3gOi-245" value="" style="group" vertex="1" connectable="0" parent="eCQYx24zuToegmJU3gOi-244">
          <mxGeometry width="40" height="10" as="geometry" />
        </mxCell>
        <mxCell id="eCQYx24zuToegmJU3gOi-246" value="" style="group" vertex="1" connectable="0" parent="eCQYx24zuToegmJU3gOi-245">
          <mxGeometry width="40" height="10" as="geometry" />
        </mxCell>
        <mxCell id="eCQYx24zuToegmJU3gOi-247" value="" style="verticalLabelPosition=bottom;verticalAlign=top;html=1;shape=mxgraph.basic.patternFillRect;fillStyle=grid;step=5;fillStrokeWidth=0.2;fillStrokeColor=#dddddd;fillColor=#FFD966;" vertex="1" parent="eCQYx24zuToegmJU3gOi-246">
          <mxGeometry x="5" width="5" height="5" as="geometry" />
        </mxCell>
        <mxCell id="eCQYx24zuToegmJU3gOi-248" value="" style="verticalLabelPosition=bottom;verticalAlign=top;html=1;shape=mxgraph.basic.patternFillRect;fillStyle=grid;step=5;fillStrokeWidth=0.2;fillStrokeColor=#dddddd;fillColor=#0000FF;" vertex="1" parent="eCQYx24zuToegmJU3gOi-246">
          <mxGeometry width="5" height="5" as="geometry" />
        </mxCell>
        <mxCell id="eCQYx24zuToegmJU3gOi-249" value="" style="group" vertex="1" connectable="0" parent="eCQYx24zuToegmJU3gOi-246">
          <mxGeometry y="5" width="40" height="5" as="geometry" />
        </mxCell>
        <mxCell id="eCQYx24zuToegmJU3gOi-250" value="" style="group" vertex="1" connectable="0" parent="eCQYx24zuToegmJU3gOi-249">
          <mxGeometry width="20" height="5" as="geometry" />
        </mxCell>
        <mxCell id="eCQYx24zuToegmJU3gOi-251" value="" style="group" vertex="1" connectable="0" parent="eCQYx24zuToegmJU3gOi-250">
          <mxGeometry width="20" height="5" as="geometry" />
        </mxCell>
        <mxCell id="eCQYx24zuToegmJU3gOi-252" value="" style="group" vertex="1" connectable="0" parent="eCQYx24zuToegmJU3gOi-251">
          <mxGeometry width="10" height="5" as="geometry" />
        </mxCell>
        <mxCell id="eCQYx24zuToegmJU3gOi-253" value="" style="group" vertex="1" connectable="0" parent="eCQYx24zuToegmJU3gOi-252">
          <mxGeometry width="10" height="5" as="geometry" />
        </mxCell>
        <mxCell id="eCQYx24zuToegmJU3gOi-254" value="" style="verticalLabelPosition=bottom;verticalAlign=top;html=1;shape=mxgraph.basic.patternFillRect;fillStyle=grid;step=5;fillStrokeWidth=0.2;fillStrokeColor=#dddddd;fillColor=#FFD966;" vertex="1" parent="eCQYx24zuToegmJU3gOi-253">
          <mxGeometry width="5" height="5" as="geometry" />
        </mxCell>
        <mxCell id="eCQYx24zuToegmJU3gOi-255" value="" style="verticalLabelPosition=bottom;verticalAlign=top;html=1;shape=mxgraph.basic.patternFillRect;fillStyle=grid;step=5;fillStrokeWidth=0.2;fillStrokeColor=#dddddd;fillColor=#0000FF;" vertex="1" parent="eCQYx24zuToegmJU3gOi-253">
          <mxGeometry x="5" width="5" height="5" as="geometry" />
        </mxCell>
        <mxCell id="eCQYx24zuToegmJU3gOi-256" value="" style="group" vertex="1" connectable="0" parent="eCQYx24zuToegmJU3gOi-251">
          <mxGeometry x="10" width="10" height="5" as="geometry" />
        </mxCell>
        <mxCell id="eCQYx24zuToegmJU3gOi-257" value="" style="verticalLabelPosition=bottom;verticalAlign=top;html=1;shape=mxgraph.basic.patternFillRect;fillStyle=grid;step=5;fillStrokeWidth=0.2;fillStrokeColor=#dddddd;fillColor=#FFD966;" vertex="1" parent="eCQYx24zuToegmJU3gOi-256">
          <mxGeometry width="5" height="5" as="geometry" />
        </mxCell>
        <mxCell id="eCQYx24zuToegmJU3gOi-258" value="" style="verticalLabelPosition=bottom;verticalAlign=top;html=1;shape=mxgraph.basic.patternFillRect;fillStyle=grid;step=5;fillStrokeWidth=0.2;fillStrokeColor=#dddddd;fillColor=#0000FF;" vertex="1" parent="eCQYx24zuToegmJU3gOi-256">
          <mxGeometry x="5" width="5" height="5" as="geometry" />
        </mxCell>
        <mxCell id="eCQYx24zuToegmJU3gOi-259" value="" style="group" vertex="1" connectable="0" parent="eCQYx24zuToegmJU3gOi-249">
          <mxGeometry x="20" width="20" height="5" as="geometry" />
        </mxCell>
        <mxCell id="eCQYx24zuToegmJU3gOi-260" value="" style="group" vertex="1" connectable="0" parent="eCQYx24zuToegmJU3gOi-259">
          <mxGeometry width="10" height="5" as="geometry" />
        </mxCell>
        <mxCell id="eCQYx24zuToegmJU3gOi-261" value="" style="group" vertex="1" connectable="0" parent="eCQYx24zuToegmJU3gOi-260">
          <mxGeometry width="10" height="5" as="geometry" />
        </mxCell>
        <mxCell id="eCQYx24zuToegmJU3gOi-262" value="" style="verticalLabelPosition=bottom;verticalAlign=top;html=1;shape=mxgraph.basic.patternFillRect;fillStyle=grid;step=5;fillStrokeWidth=0.2;fillStrokeColor=#dddddd;fillColor=#FFD966;" vertex="1" parent="eCQYx24zuToegmJU3gOi-261">
          <mxGeometry width="5" height="5" as="geometry" />
        </mxCell>
        <mxCell id="eCQYx24zuToegmJU3gOi-263" value="" style="verticalLabelPosition=bottom;verticalAlign=top;html=1;shape=mxgraph.basic.patternFillRect;fillStyle=grid;step=5;fillStrokeWidth=0.2;fillStrokeColor=#dddddd;fillColor=#0000FF;" vertex="1" parent="eCQYx24zuToegmJU3gOi-261">
          <mxGeometry x="5" width="5" height="5" as="geometry" />
        </mxCell>
        <mxCell id="eCQYx24zuToegmJU3gOi-264" value="" style="group" vertex="1" connectable="0" parent="eCQYx24zuToegmJU3gOi-259">
          <mxGeometry x="10" width="10" height="5" as="geometry" />
        </mxCell>
        <mxCell id="eCQYx24zuToegmJU3gOi-265" value="" style="verticalLabelPosition=bottom;verticalAlign=top;html=1;shape=mxgraph.basic.patternFillRect;fillStyle=grid;step=5;fillStrokeWidth=0.2;fillStrokeColor=#dddddd;fillColor=#FFD966;" vertex="1" parent="eCQYx24zuToegmJU3gOi-264">
          <mxGeometry width="5" height="5" as="geometry" />
        </mxCell>
        <mxCell id="eCQYx24zuToegmJU3gOi-266" value="" style="verticalLabelPosition=bottom;verticalAlign=top;html=1;shape=mxgraph.basic.patternFillRect;fillStyle=grid;step=5;fillStrokeWidth=0.2;fillStrokeColor=#dddddd;fillColor=#0000FF;" vertex="1" parent="eCQYx24zuToegmJU3gOi-264">
          <mxGeometry x="5" width="5" height="5" as="geometry" />
        </mxCell>
        <mxCell id="eCQYx24zuToegmJU3gOi-267" value="" style="group" vertex="1" connectable="0" parent="eCQYx24zuToegmJU3gOi-243">
          <mxGeometry x="10" width="10" height="5" as="geometry" />
        </mxCell>
        <mxCell id="eCQYx24zuToegmJU3gOi-268" value="" style="verticalLabelPosition=bottom;verticalAlign=top;html=1;shape=mxgraph.basic.patternFillRect;fillStyle=grid;step=5;fillStrokeWidth=0.2;fillStrokeColor=#dddddd;fillColor=#FFD966;" vertex="1" parent="eCQYx24zuToegmJU3gOi-267">
          <mxGeometry x="5" width="5" height="5" as="geometry" />
        </mxCell>
        <mxCell id="eCQYx24zuToegmJU3gOi-269" value="" style="verticalLabelPosition=bottom;verticalAlign=top;html=1;shape=mxgraph.basic.patternFillRect;fillStyle=grid;step=5;fillStrokeWidth=0.2;fillStrokeColor=#dddddd;fillColor=#0000FF;" vertex="1" parent="eCQYx24zuToegmJU3gOi-267">
          <mxGeometry width="5" height="5" as="geometry" />
        </mxCell>
        <mxCell id="eCQYx24zuToegmJU3gOi-270" value="" style="group" vertex="1" connectable="0" parent="eCQYx24zuToegmJU3gOi-241">
          <mxGeometry x="20" width="20" height="5" as="geometry" />
        </mxCell>
        <mxCell id="eCQYx24zuToegmJU3gOi-271" value="" style="group" vertex="1" connectable="0" parent="eCQYx24zuToegmJU3gOi-270">
          <mxGeometry width="10" height="5" as="geometry" />
        </mxCell>
        <mxCell id="eCQYx24zuToegmJU3gOi-272" value="" style="group" vertex="1" connectable="0" parent="eCQYx24zuToegmJU3gOi-271">
          <mxGeometry width="10" height="5" as="geometry" />
        </mxCell>
        <mxCell id="eCQYx24zuToegmJU3gOi-273" value="" style="verticalLabelPosition=bottom;verticalAlign=top;html=1;shape=mxgraph.basic.patternFillRect;fillStyle=grid;step=5;fillStrokeWidth=0.2;fillStrokeColor=#dddddd;fillColor=#FFD966;" vertex="1" parent="eCQYx24zuToegmJU3gOi-272">
          <mxGeometry x="5" width="5" height="5" as="geometry" />
        </mxCell>
        <mxCell id="eCQYx24zuToegmJU3gOi-274" value="" style="verticalLabelPosition=bottom;verticalAlign=top;html=1;shape=mxgraph.basic.patternFillRect;fillStyle=grid;step=5;fillStrokeWidth=0.2;fillStrokeColor=#dddddd;fillColor=#0000FF;" vertex="1" parent="eCQYx24zuToegmJU3gOi-272">
          <mxGeometry width="5" height="5" as="geometry" />
        </mxCell>
        <mxCell id="eCQYx24zuToegmJU3gOi-275" value="" style="group" vertex="1" connectable="0" parent="eCQYx24zuToegmJU3gOi-270">
          <mxGeometry x="10" width="10" height="5" as="geometry" />
        </mxCell>
        <mxCell id="eCQYx24zuToegmJU3gOi-276" value="" style="verticalLabelPosition=bottom;verticalAlign=top;html=1;shape=mxgraph.basic.patternFillRect;fillStyle=grid;step=5;fillStrokeWidth=0.2;fillStrokeColor=#dddddd;fillColor=#FFD966;" vertex="1" parent="eCQYx24zuToegmJU3gOi-275">
          <mxGeometry x="5" width="5" height="5" as="geometry" />
        </mxCell>
        <mxCell id="eCQYx24zuToegmJU3gOi-277" value="" style="verticalLabelPosition=bottom;verticalAlign=top;html=1;shape=mxgraph.basic.patternFillRect;fillStyle=grid;step=5;fillStrokeWidth=0.2;fillStrokeColor=#dddddd;fillColor=#0000FF;" vertex="1" parent="eCQYx24zuToegmJU3gOi-275">
          <mxGeometry width="5" height="5" as="geometry" />
        </mxCell>
        <mxCell id="eCQYx24zuToegmJU3gOi-278" value="" style="group" vertex="1" connectable="0" parent="eCQYx24zuToegmJU3gOi-215">
          <mxGeometry y="15" width="40" height="10" as="geometry" />
        </mxCell>
        <mxCell id="eCQYx24zuToegmJU3gOi-279" value="" style="group" vertex="1" connectable="0" parent="eCQYx24zuToegmJU3gOi-278">
          <mxGeometry width="40" height="10" as="geometry" />
        </mxCell>
        <mxCell id="eCQYx24zuToegmJU3gOi-280" value="" style="group" vertex="1" connectable="0" parent="eCQYx24zuToegmJU3gOi-279">
          <mxGeometry width="40" height="10" as="geometry" />
        </mxCell>
        <mxCell id="eCQYx24zuToegmJU3gOi-281" value="" style="group" vertex="1" connectable="0" parent="eCQYx24zuToegmJU3gOi-280">
          <mxGeometry width="40" height="10" as="geometry" />
        </mxCell>
        <mxCell id="eCQYx24zuToegmJU3gOi-282" value="" style="group" vertex="1" connectable="0" parent="eCQYx24zuToegmJU3gOi-281">
          <mxGeometry width="40" height="10" as="geometry" />
        </mxCell>
        <mxCell id="eCQYx24zuToegmJU3gOi-283" value="" style="group" vertex="1" connectable="0" parent="eCQYx24zuToegmJU3gOi-282">
          <mxGeometry width="40" height="10" as="geometry" />
        </mxCell>
        <mxCell id="eCQYx24zuToegmJU3gOi-284" value="" style="verticalLabelPosition=bottom;verticalAlign=top;html=1;shape=mxgraph.basic.patternFillRect;fillStyle=grid;step=5;fillStrokeWidth=0.2;fillStrokeColor=#dddddd;fillColor=#FFD966;" vertex="1" parent="eCQYx24zuToegmJU3gOi-283">
          <mxGeometry x="5" width="5" height="5" as="geometry" />
        </mxCell>
        <mxCell id="eCQYx24zuToegmJU3gOi-285" value="" style="verticalLabelPosition=bottom;verticalAlign=top;html=1;shape=mxgraph.basic.patternFillRect;fillStyle=grid;step=5;fillStrokeWidth=0.2;fillStrokeColor=#dddddd;fillColor=#0000FF;" vertex="1" parent="eCQYx24zuToegmJU3gOi-283">
          <mxGeometry width="5" height="5" as="geometry" />
        </mxCell>
        <mxCell id="eCQYx24zuToegmJU3gOi-286" value="" style="group" vertex="1" connectable="0" parent="eCQYx24zuToegmJU3gOi-283">
          <mxGeometry y="5" width="40" height="5" as="geometry" />
        </mxCell>
        <mxCell id="eCQYx24zuToegmJU3gOi-287" value="" style="group" vertex="1" connectable="0" parent="eCQYx24zuToegmJU3gOi-286">
          <mxGeometry width="20" height="5" as="geometry" />
        </mxCell>
        <mxCell id="eCQYx24zuToegmJU3gOi-288" value="" style="group" vertex="1" connectable="0" parent="eCQYx24zuToegmJU3gOi-287">
          <mxGeometry width="20" height="5" as="geometry" />
        </mxCell>
        <mxCell id="eCQYx24zuToegmJU3gOi-289" value="" style="group" vertex="1" connectable="0" parent="eCQYx24zuToegmJU3gOi-288">
          <mxGeometry width="10" height="5" as="geometry" />
        </mxCell>
        <mxCell id="eCQYx24zuToegmJU3gOi-290" value="" style="group" vertex="1" connectable="0" parent="eCQYx24zuToegmJU3gOi-289">
          <mxGeometry width="10" height="5" as="geometry" />
        </mxCell>
        <mxCell id="eCQYx24zuToegmJU3gOi-291" value="" style="verticalLabelPosition=bottom;verticalAlign=top;html=1;shape=mxgraph.basic.patternFillRect;fillStyle=grid;step=5;fillStrokeWidth=0.2;fillStrokeColor=#dddddd;fillColor=#FFD966;" vertex="1" parent="eCQYx24zuToegmJU3gOi-290">
          <mxGeometry width="5" height="5" as="geometry" />
        </mxCell>
        <mxCell id="eCQYx24zuToegmJU3gOi-292" value="" style="verticalLabelPosition=bottom;verticalAlign=top;html=1;shape=mxgraph.basic.patternFillRect;fillStyle=grid;step=5;fillStrokeWidth=0.2;fillStrokeColor=#dddddd;fillColor=#0000FF;" vertex="1" parent="eCQYx24zuToegmJU3gOi-290">
          <mxGeometry x="5" width="5" height="5" as="geometry" />
        </mxCell>
        <mxCell id="eCQYx24zuToegmJU3gOi-293" value="" style="group" vertex="1" connectable="0" parent="eCQYx24zuToegmJU3gOi-288">
          <mxGeometry x="10" width="10" height="5" as="geometry" />
        </mxCell>
        <mxCell id="eCQYx24zuToegmJU3gOi-294" value="" style="verticalLabelPosition=bottom;verticalAlign=top;html=1;shape=mxgraph.basic.patternFillRect;fillStyle=grid;step=5;fillStrokeWidth=0.2;fillStrokeColor=#dddddd;fillColor=#FFD966;" vertex="1" parent="eCQYx24zuToegmJU3gOi-293">
          <mxGeometry width="5" height="5" as="geometry" />
        </mxCell>
        <mxCell id="eCQYx24zuToegmJU3gOi-295" value="" style="verticalLabelPosition=bottom;verticalAlign=top;html=1;shape=mxgraph.basic.patternFillRect;fillStyle=grid;step=5;fillStrokeWidth=0.2;fillStrokeColor=#dddddd;fillColor=#0000FF;" vertex="1" parent="eCQYx24zuToegmJU3gOi-293">
          <mxGeometry x="5" width="5" height="5" as="geometry" />
        </mxCell>
        <mxCell id="eCQYx24zuToegmJU3gOi-296" value="" style="group" vertex="1" connectable="0" parent="eCQYx24zuToegmJU3gOi-286">
          <mxGeometry x="20" width="20" height="5" as="geometry" />
        </mxCell>
        <mxCell id="eCQYx24zuToegmJU3gOi-297" value="" style="group" vertex="1" connectable="0" parent="eCQYx24zuToegmJU3gOi-296">
          <mxGeometry width="10" height="5" as="geometry" />
        </mxCell>
        <mxCell id="eCQYx24zuToegmJU3gOi-298" value="" style="group" vertex="1" connectable="0" parent="eCQYx24zuToegmJU3gOi-297">
          <mxGeometry width="10" height="5" as="geometry" />
        </mxCell>
        <mxCell id="eCQYx24zuToegmJU3gOi-299" value="" style="verticalLabelPosition=bottom;verticalAlign=top;html=1;shape=mxgraph.basic.patternFillRect;fillStyle=grid;step=5;fillStrokeWidth=0.2;fillStrokeColor=#dddddd;fillColor=#FFD966;" vertex="1" parent="eCQYx24zuToegmJU3gOi-298">
          <mxGeometry width="5" height="5" as="geometry" />
        </mxCell>
        <mxCell id="eCQYx24zuToegmJU3gOi-300" value="" style="verticalLabelPosition=bottom;verticalAlign=top;html=1;shape=mxgraph.basic.patternFillRect;fillStyle=grid;step=5;fillStrokeWidth=0.2;fillStrokeColor=#dddddd;fillColor=#0000FF;" vertex="1" parent="eCQYx24zuToegmJU3gOi-298">
          <mxGeometry x="5" width="5" height="5" as="geometry" />
        </mxCell>
        <mxCell id="eCQYx24zuToegmJU3gOi-301" value="" style="group" vertex="1" connectable="0" parent="eCQYx24zuToegmJU3gOi-296">
          <mxGeometry x="10" width="10" height="5" as="geometry" />
        </mxCell>
        <mxCell id="eCQYx24zuToegmJU3gOi-302" value="" style="verticalLabelPosition=bottom;verticalAlign=top;html=1;shape=mxgraph.basic.patternFillRect;fillStyle=grid;step=5;fillStrokeWidth=0.2;fillStrokeColor=#dddddd;fillColor=#FFD966;" vertex="1" parent="eCQYx24zuToegmJU3gOi-301">
          <mxGeometry width="5" height="5" as="geometry" />
        </mxCell>
        <mxCell id="eCQYx24zuToegmJU3gOi-303" value="" style="verticalLabelPosition=bottom;verticalAlign=top;html=1;shape=mxgraph.basic.patternFillRect;fillStyle=grid;step=5;fillStrokeWidth=0.2;fillStrokeColor=#dddddd;fillColor=#0000FF;" vertex="1" parent="eCQYx24zuToegmJU3gOi-301">
          <mxGeometry x="5" width="5" height="5" as="geometry" />
        </mxCell>
        <mxCell id="eCQYx24zuToegmJU3gOi-304" value="" style="group" vertex="1" connectable="0" parent="eCQYx24zuToegmJU3gOi-280">
          <mxGeometry x="10" width="10" height="5" as="geometry" />
        </mxCell>
        <mxCell id="eCQYx24zuToegmJU3gOi-305" value="" style="verticalLabelPosition=bottom;verticalAlign=top;html=1;shape=mxgraph.basic.patternFillRect;fillStyle=grid;step=5;fillStrokeWidth=0.2;fillStrokeColor=#dddddd;fillColor=#FFD966;" vertex="1" parent="eCQYx24zuToegmJU3gOi-304">
          <mxGeometry x="5" width="5" height="5" as="geometry" />
        </mxCell>
        <mxCell id="eCQYx24zuToegmJU3gOi-306" value="" style="verticalLabelPosition=bottom;verticalAlign=top;html=1;shape=mxgraph.basic.patternFillRect;fillStyle=grid;step=5;fillStrokeWidth=0.2;fillStrokeColor=#dddddd;fillColor=#0000FF;" vertex="1" parent="eCQYx24zuToegmJU3gOi-304">
          <mxGeometry width="5" height="5" as="geometry" />
        </mxCell>
        <mxCell id="eCQYx24zuToegmJU3gOi-307" value="" style="group" vertex="1" connectable="0" parent="eCQYx24zuToegmJU3gOi-278">
          <mxGeometry x="20" width="20" height="5" as="geometry" />
        </mxCell>
        <mxCell id="eCQYx24zuToegmJU3gOi-308" value="" style="group" vertex="1" connectable="0" parent="eCQYx24zuToegmJU3gOi-307">
          <mxGeometry width="10" height="5" as="geometry" />
        </mxCell>
        <mxCell id="eCQYx24zuToegmJU3gOi-309" value="" style="group" vertex="1" connectable="0" parent="eCQYx24zuToegmJU3gOi-308">
          <mxGeometry width="10" height="5" as="geometry" />
        </mxCell>
        <mxCell id="eCQYx24zuToegmJU3gOi-310" value="" style="verticalLabelPosition=bottom;verticalAlign=top;html=1;shape=mxgraph.basic.patternFillRect;fillStyle=grid;step=5;fillStrokeWidth=0.2;fillStrokeColor=#dddddd;fillColor=#FFD966;" vertex="1" parent="eCQYx24zuToegmJU3gOi-309">
          <mxGeometry x="5" width="5" height="5" as="geometry" />
        </mxCell>
        <mxCell id="eCQYx24zuToegmJU3gOi-311" value="" style="verticalLabelPosition=bottom;verticalAlign=top;html=1;shape=mxgraph.basic.patternFillRect;fillStyle=grid;step=5;fillStrokeWidth=0.2;fillStrokeColor=#dddddd;fillColor=#0000FF;" vertex="1" parent="eCQYx24zuToegmJU3gOi-309">
          <mxGeometry width="5" height="5" as="geometry" />
        </mxCell>
        <mxCell id="eCQYx24zuToegmJU3gOi-312" value="" style="group" vertex="1" connectable="0" parent="eCQYx24zuToegmJU3gOi-307">
          <mxGeometry x="10" width="10" height="5" as="geometry" />
        </mxCell>
        <mxCell id="eCQYx24zuToegmJU3gOi-313" value="" style="verticalLabelPosition=bottom;verticalAlign=top;html=1;shape=mxgraph.basic.patternFillRect;fillStyle=grid;step=5;fillStrokeWidth=0.2;fillStrokeColor=#dddddd;fillColor=#FFD966;" vertex="1" parent="eCQYx24zuToegmJU3gOi-312">
          <mxGeometry x="5" width="5" height="5" as="geometry" />
        </mxCell>
        <mxCell id="eCQYx24zuToegmJU3gOi-314" value="" style="verticalLabelPosition=bottom;verticalAlign=top;html=1;shape=mxgraph.basic.patternFillRect;fillStyle=grid;step=5;fillStrokeWidth=0.2;fillStrokeColor=#dddddd;fillColor=#0000FF;" vertex="1" parent="eCQYx24zuToegmJU3gOi-312">
          <mxGeometry width="5" height="5" as="geometry" />
        </mxCell>
        <mxCell id="eCQYx24zuToegmJU3gOi-218" value="" style="group" vertex="1" connectable="0" parent="eCQYx24zuToegmJU3gOi-213">
          <mxGeometry x="10" width="10" height="5" as="geometry" />
        </mxCell>
        <mxCell id="eCQYx24zuToegmJU3gOi-219" value="" style="verticalLabelPosition=bottom;verticalAlign=top;html=1;shape=mxgraph.basic.patternFillRect;fillStyle=grid;step=5;fillStrokeWidth=0.2;fillStrokeColor=#dddddd;fillColor=#FFD966;" vertex="1" parent="eCQYx24zuToegmJU3gOi-218">
          <mxGeometry width="5" height="5" as="geometry" />
        </mxCell>
        <mxCell id="eCQYx24zuToegmJU3gOi-220" value="" style="verticalLabelPosition=bottom;verticalAlign=top;html=1;shape=mxgraph.basic.patternFillRect;fillStyle=grid;step=5;fillStrokeWidth=0.2;fillStrokeColor=#dddddd;fillColor=#0000FF;" vertex="1" parent="eCQYx24zuToegmJU3gOi-218">
          <mxGeometry x="5" width="5" height="5" as="geometry" />
        </mxCell>
        <mxCell id="eCQYx24zuToegmJU3gOi-221" value="" style="group" vertex="1" connectable="0" parent="eCQYx24zuToegmJU3gOi-211">
          <mxGeometry x="20" width="20" height="5" as="geometry" />
        </mxCell>
        <mxCell id="eCQYx24zuToegmJU3gOi-222" value="" style="group" vertex="1" connectable="0" parent="eCQYx24zuToegmJU3gOi-221">
          <mxGeometry width="10" height="5" as="geometry" />
        </mxCell>
        <mxCell id="eCQYx24zuToegmJU3gOi-223" value="" style="group" vertex="1" connectable="0" parent="eCQYx24zuToegmJU3gOi-222">
          <mxGeometry width="10" height="5" as="geometry" />
        </mxCell>
        <mxCell id="eCQYx24zuToegmJU3gOi-224" value="" style="verticalLabelPosition=bottom;verticalAlign=top;html=1;shape=mxgraph.basic.patternFillRect;fillStyle=grid;step=5;fillStrokeWidth=0.2;fillStrokeColor=#dddddd;fillColor=#FFD966;" vertex="1" parent="eCQYx24zuToegmJU3gOi-223">
          <mxGeometry width="5" height="5" as="geometry" />
        </mxCell>
        <mxCell id="eCQYx24zuToegmJU3gOi-225" value="" style="verticalLabelPosition=bottom;verticalAlign=top;html=1;shape=mxgraph.basic.patternFillRect;fillStyle=grid;step=5;fillStrokeWidth=0.2;fillStrokeColor=#dddddd;fillColor=#0000FF;" vertex="1" parent="eCQYx24zuToegmJU3gOi-223">
          <mxGeometry x="5" width="5" height="5" as="geometry" />
        </mxCell>
        <mxCell id="eCQYx24zuToegmJU3gOi-226" value="" style="group" vertex="1" connectable="0" parent="eCQYx24zuToegmJU3gOi-221">
          <mxGeometry x="10" width="10" height="5" as="geometry" />
        </mxCell>
        <mxCell id="eCQYx24zuToegmJU3gOi-227" value="" style="verticalLabelPosition=bottom;verticalAlign=top;html=1;shape=mxgraph.basic.patternFillRect;fillStyle=grid;step=5;fillStrokeWidth=0.2;fillStrokeColor=#dddddd;fillColor=#FFD966;" vertex="1" parent="eCQYx24zuToegmJU3gOi-226">
          <mxGeometry width="5" height="5" as="geometry" />
        </mxCell>
        <mxCell id="eCQYx24zuToegmJU3gOi-228" value="" style="verticalLabelPosition=bottom;verticalAlign=top;html=1;shape=mxgraph.basic.patternFillRect;fillStyle=grid;step=5;fillStrokeWidth=0.2;fillStrokeColor=#dddddd;fillColor=#0000FF;" vertex="1" parent="eCQYx24zuToegmJU3gOi-226">
          <mxGeometry x="5" width="5" height="5" as="geometry" />
        </mxCell>
        <mxCell id="eCQYx24zuToegmJU3gOi-229" value="" style="group" vertex="1" connectable="0" parent="eCQYx24zuToegmJU3gOi-205">
          <mxGeometry x="10" width="10" height="5" as="geometry" />
        </mxCell>
        <mxCell id="eCQYx24zuToegmJU3gOi-230" value="" style="verticalLabelPosition=bottom;verticalAlign=top;html=1;shape=mxgraph.basic.patternFillRect;fillStyle=grid;step=5;fillStrokeWidth=0.2;fillStrokeColor=#dddddd;fillColor=#FFD966;" vertex="1" parent="eCQYx24zuToegmJU3gOi-229">
          <mxGeometry x="5" width="5" height="5" as="geometry" />
        </mxCell>
        <mxCell id="eCQYx24zuToegmJU3gOi-231" value="" style="verticalLabelPosition=bottom;verticalAlign=top;html=1;shape=mxgraph.basic.patternFillRect;fillStyle=grid;step=5;fillStrokeWidth=0.2;fillStrokeColor=#dddddd;fillColor=#0000FF;" vertex="1" parent="eCQYx24zuToegmJU3gOi-229">
          <mxGeometry width="5" height="5" as="geometry" />
        </mxCell>
        <mxCell id="eCQYx24zuToegmJU3gOi-232" value="" style="group" vertex="1" connectable="0" parent="eCQYx24zuToegmJU3gOi-203">
          <mxGeometry x="20" width="20" height="5" as="geometry" />
        </mxCell>
        <mxCell id="eCQYx24zuToegmJU3gOi-233" value="" style="group" vertex="1" connectable="0" parent="eCQYx24zuToegmJU3gOi-232">
          <mxGeometry width="10" height="5" as="geometry" />
        </mxCell>
        <mxCell id="eCQYx24zuToegmJU3gOi-234" value="" style="group" vertex="1" connectable="0" parent="eCQYx24zuToegmJU3gOi-233">
          <mxGeometry width="10" height="5" as="geometry" />
        </mxCell>
        <mxCell id="eCQYx24zuToegmJU3gOi-235" value="" style="verticalLabelPosition=bottom;verticalAlign=top;html=1;shape=mxgraph.basic.patternFillRect;fillStyle=grid;step=5;fillStrokeWidth=0.2;fillStrokeColor=#dddddd;fillColor=#FFD966;" vertex="1" parent="eCQYx24zuToegmJU3gOi-234">
          <mxGeometry x="5" width="5" height="5" as="geometry" />
        </mxCell>
        <mxCell id="eCQYx24zuToegmJU3gOi-236" value="" style="verticalLabelPosition=bottom;verticalAlign=top;html=1;shape=mxgraph.basic.patternFillRect;fillStyle=grid;step=5;fillStrokeWidth=0.2;fillStrokeColor=#dddddd;fillColor=#0000FF;" vertex="1" parent="eCQYx24zuToegmJU3gOi-234">
          <mxGeometry width="5" height="5" as="geometry" />
        </mxCell>
        <mxCell id="eCQYx24zuToegmJU3gOi-237" value="" style="group" vertex="1" connectable="0" parent="eCQYx24zuToegmJU3gOi-232">
          <mxGeometry x="10" width="10" height="5" as="geometry" />
        </mxCell>
        <mxCell id="eCQYx24zuToegmJU3gOi-238" value="" style="verticalLabelPosition=bottom;verticalAlign=top;html=1;shape=mxgraph.basic.patternFillRect;fillStyle=grid;step=5;fillStrokeWidth=0.2;fillStrokeColor=#dddddd;fillColor=#FFD966;" vertex="1" parent="eCQYx24zuToegmJU3gOi-237">
          <mxGeometry x="5" width="5" height="5" as="geometry" />
        </mxCell>
        <mxCell id="eCQYx24zuToegmJU3gOi-239" value="" style="verticalLabelPosition=bottom;verticalAlign=top;html=1;shape=mxgraph.basic.patternFillRect;fillStyle=grid;step=5;fillStrokeWidth=0.2;fillStrokeColor=#dddddd;fillColor=#0000FF;" vertex="1" parent="eCQYx24zuToegmJU3gOi-237">
          <mxGeometry width="5" height="5" as="geometry" />
        </mxCell>
        <mxCell id="eCQYx24zuToegmJU3gOi-320" value="Chess" style="text;html=1;align=center;verticalAlign=middle;resizable=0;points=[];autosize=1;strokeColor=none;fillColor=none;" vertex="1" parent="1">
          <mxGeometry x="310" y="10" width="60" height="30" as="geometry" />
        </mxCell>
        <mxCell id="eCQYx24zuToegmJU3gOi-321" value="" style="html=1;shadow=0;dashed=0;align=center;verticalAlign=middle;shape=mxgraph.arrows2.stylisedArrow;dy=0.6;dx=40;notch=15;feather=0.4;rotation=-90;" vertex="1" parent="1">
          <mxGeometry x="300" y="140" width="100" height="30" as="geometry" />
        </mxCell>
        <mxCell id="eCQYx24zuToegmJU3gOi-322" value="Board module" style="verticalLabelPosition=bottom;verticalAlign=top;html=1;shape=mxgraph.basic.wave2;dy=0.3;" vertex="1" parent="1">
          <mxGeometry x="300" y="170" width="100" height="60" as="geometry" />
        </mxCell>
        <mxCell id="eCQYx24zuToegmJU3gOi-323" value="GameRunner module" style="text;html=1;align=center;verticalAlign=middle;resizable=0;points=[];autosize=1;strokeColor=none;fillColor=none;" vertex="1" parent="1">
          <mxGeometry x="330" y="35" width="140" height="30" as="geometry" />
        </mxCell>
        <mxCell id="eCQYx24zuToegmJU3gOi-328" value="" style="html=1;shadow=0;dashed=0;align=center;verticalAlign=middle;shape=mxgraph.arrows2.sharpArrow2;dy1=0.67;dx1=18;dx2=18;dy3=0.15;dx3=27;notch=6.5;rotation=59;" vertex="1" parent="1">
          <mxGeometry x="377" y="100" width="90" height="50" as="geometry" />
        </mxCell>
        <mxCell id="eCQYx24zuToegmJU3gOi-327" value="" style="verticalLabelPosition=bottom;verticalAlign=top;html=1;shape=mxgraph.basic.star" vertex="1" parent="1">
          <mxGeometry x="375" y="57.5" width="50" height="55" as="geometry" />
        </mxCell>
        <mxCell id="eCQYx24zuToegmJU3gOi-329" value="" style="shape=mxgraph.arrows2.wedgeArrowDashed2;html=1;bendable=0;startWidth=50;stepSize=15;rounded=0;" edge="1" parent="1" target="eCQYx24zuToegmJU3gOi-330">
          <mxGeometry width="100" height="100" relative="1" as="geometry">
            <mxPoint x="440" y="230" as="sourcePoint" />
            <mxPoint x="520" y="150" as="targetPoint" />
          </mxGeometry>
        </mxCell>
        <mxCell id="eCQYx24zuToegmJU3gOi-330" value="&lt;div&gt;All the pieces...&lt;/div&gt;&lt;div&gt;pawn&lt;/div&gt;&lt;div&gt;rook&lt;/div&gt;&lt;div&gt;knight&lt;/div&gt;&lt;div&gt;bishop&lt;/div&gt;&lt;div&gt;queen&lt;/div&gt;&lt;div&gt;king&lt;/div&gt;&lt;div&gt;Promoting&lt;br&gt;&lt;/div&gt;" style="verticalLabelPosition=bottom;verticalAlign=top;html=1;shape=card;whiteSpace=wrap;size=20;arcSize=12;" vertex="1" parent="1">
          <mxGeometry x="460" y="125" width="100" height="60" as="geometry" />
        </mxCell>
      </root>
    </mxGraphModel>
  </diagram>
</mxfile>
